<svg width="795" height="401" viewBox="0 0 795 401" fill="none" xmlns="http://www.w3.org/2000/svg">
<path d="M752.428 365.093V363.832L749.837 362.958V359.16L752.428 358.287V357.026L742.726 360.477V361.642L752.428 365.093ZM748.672 359.562V362.556L744.306 361.059L748.672 359.562ZM752.428 355.679V353.226C752.428 351.909 752.013 350.869 751.195 350.093C750.377 349.303 749.171 348.915 747.577 348.915C745.983 348.915 744.777 349.303 743.96 350.093C743.142 350.869 742.726 351.909 742.726 353.226V355.679H752.428ZM743.89 353.35C743.89 351.313 744.971 350.218 747.577 350.218C750.183 350.218 751.264 351.313 751.264 353.35V354.459H743.89V353.35ZM752.428 347.237V346.017H745.318L749.642 344.326V343.411L745.318 341.72H752.428V340.5H742.726V341.803L748.104 343.868L742.726 345.934V347.237H752.428ZM751.375 332.32V334.662H743.779V332.32H742.726V338.225H743.779V335.882H751.375V338.225H752.428V332.32H751.375ZM743.89 327.286H752.428V326.066H743.89V323.045H742.726V330.308H743.89V327.286ZM743.904 312.202C744.75 312.909 745.983 313.255 747.577 313.255C749.171 313.255 750.405 312.909 751.264 312.202C752.11 311.495 752.539 310.594 752.539 309.485C752.539 308.376 752.11 307.475 751.264 306.768C750.405 306.061 749.171 305.715 747.577 305.715C745.983 305.715 744.75 306.061 743.904 306.768C743.045 307.475 742.615 308.376 742.615 309.485C742.615 310.594 743.045 311.495 743.904 312.202ZM744.708 307.655C745.318 307.198 746.274 306.976 747.577 306.976C748.88 306.976 749.837 307.198 750.46 307.655C751.07 308.113 751.375 308.723 751.375 309.485C751.375 310.248 751.07 310.857 750.46 311.315C749.837 311.772 748.88 311.994 747.577 311.994C746.274 311.994 745.318 311.772 744.708 311.315C744.084 310.857 743.779 310.248 743.779 309.485C743.779 308.723 744.084 308.113 744.708 307.655ZM750.211 298.811L742.726 302.872V304.203H752.428V302.983H744.944L752.428 298.922V297.591H742.726V298.811H750.211ZM752.428 295.33V289.037H751.264V294.11H747.841V289.868H746.676V294.11H743.89V289.175H742.726V295.33H752.428Z" fill="#797979"/>
<path d="M752.428 121.529V120.267L749.837 119.394V115.596L752.428 114.723V113.461L742.726 116.913V118.077L752.428 121.529ZM748.672 115.998V118.992L744.306 117.495L748.672 115.998ZM752.428 112.115V109.661C752.428 108.345 752.013 107.305 751.195 106.529C750.377 105.739 749.171 105.35 747.577 105.35C745.983 105.35 744.777 105.739 743.96 106.529C743.142 107.305 742.726 108.345 742.726 109.661V112.115H752.428ZM743.89 109.786C743.89 107.749 744.971 106.653 747.577 106.653C750.183 106.653 751.264 107.749 751.264 109.786V110.895H743.89V109.786ZM752.428 103.672V102.452H745.318L749.642 100.761V99.8462L745.318 98.1551H752.428V96.9353H742.726V98.2383L748.104 100.304L742.726 102.369V103.672H752.428ZM751.375 88.7555V91.0981H743.779V88.7555H742.726V94.6605H743.779V92.3179H751.375V94.6605H752.428V88.7555H751.375ZM743.89 83.7222H752.428V82.5024H743.89V79.4806H742.726V86.744H743.89V83.7222ZM743.904 68.6378C744.75 69.3447 745.983 69.6913 747.577 69.6913C749.171 69.6913 750.405 69.3447 751.264 68.6378C752.11 67.9309 752.539 67.0299 752.539 65.921C752.539 64.8121 752.11 63.9111 751.264 63.2041C750.405 62.4972 749.171 62.1507 747.577 62.1507C745.983 62.1507 744.75 62.4972 743.904 63.2041C743.045 63.9111 742.615 64.8121 742.615 65.921C742.615 67.0299 743.045 67.9309 743.904 68.6378ZM744.708 64.0913C745.318 63.6338 746.274 63.4121 747.577 63.4121C748.88 63.4121 749.837 63.6338 750.46 64.0913C751.07 64.5487 751.375 65.1586 751.375 65.921C751.375 66.6834 751.07 67.2933 750.46 67.7507C749.837 68.2081 748.88 68.4299 747.577 68.4299C746.274 68.4299 745.318 68.2081 744.708 67.7507C744.084 67.2933 743.779 66.6834 743.779 65.921C743.779 65.1586 744.084 64.5487 744.708 64.0913ZM750.211 55.246L742.726 59.3074V60.6381H752.428V59.4183H744.944L752.428 55.3569V54.0262H742.726V55.246H750.211ZM752.428 51.7652V45.4722H751.264V50.5454H747.841V46.3039H746.676V50.5454H743.89V45.6108H742.726V51.7652H752.428Z" fill="#797979"/>
<mask id="mask0" mask-type="alpha" maskUnits="userSpaceOnUse" x="0" y="1" width="795" height="400">
<path d="M795 1H0V401H795V1Z" fill="white"/>
<path fill-rule="evenodd" clip-rule="evenodd" d="M19.8007 4.96045C11.0522 4.96045 3.96014 12.0529 3.96014 20.802V381.198C3.96014 389.948 11.0523 397.04 19.8007 397.04H775.199C783.948 397.04 791.04 389.948 791.04 381.198V236.644C771.356 236.644 755.398 220.685 755.398 201C755.398 181.315 771.356 165.357 791.04 165.357V20.802C791.04 12.0529 783.948 4.96045 775.199 4.96045H19.8007Z" fill="black"/>
</mask>
<g mask="url(#mask0)">
<path d="M791.04 236.644H795V232.683H791.04V236.644ZM791.04 165.356V169.317H795V165.356H791.04ZM7.9203 20.802C7.9203 14.2402 13.2394 8.92079 19.8007 8.92079V1C8.8651 1 0 9.86564 0 20.802H7.9203ZM7.9203 381.198V20.802H0V381.198H7.9203ZM19.8007 393.079C13.2394 393.079 7.9203 387.759 7.9203 381.198H0C0 392.135 8.86512 401 19.8007 401V393.079ZM775.199 393.079H19.8007V401H775.199V393.079ZM787.08 381.198C787.08 387.759 781.76 393.079 775.199 393.079V401C786.135 401 795 392.135 795 381.198H787.08ZM787.08 236.644V381.198H795V236.644H787.08ZM791.04 232.683C773.543 232.683 759.359 218.498 759.359 201H751.438C751.438 222.872 769.169 240.604 791.04 240.604V232.683ZM759.359 201C759.359 183.502 773.543 169.317 791.04 169.317V161.396C769.169 161.396 751.438 179.128 751.438 201H759.359ZM787.08 20.802V165.356H795V20.802H787.08ZM775.199 8.92079C781.76 8.92079 787.08 14.2402 787.08 20.802H795C795 9.86564 786.135 1 775.199 1V8.92079ZM19.8007 8.92079H775.199V1H19.8007V8.92079Z" fill="url(#paint0_radial)"/>
<path d="M58.927 163.527L59.6399 176.572C62.6337 178.141 69.1205 181.135 75.2508 180.921C85.8006 180.921 92.715 171.582 92.715 155.614V132.517L92.9289 130.806H68.8353V131.234L85.9432 132.945V155.614C85.9432 169.444 84.9452 180.208 74.6805 180.065C68.5502 179.994 63.703 172.01 58.927 163.527ZM117.719 143.852C107.669 143.852 97.9031 152.691 97.8318 162.814C97.618 173.079 107.027 181.277 117.007 181.277C127.129 181.277 136.752 173.079 136.894 162.814C137.037 152.691 127.77 143.852 117.719 143.852ZM118.432 179.852C111.518 179.852 104.96 173.721 104.176 162.814C103.249 151.194 109.094 144.992 116.08 144.992C122.994 144.992 130.051 150.339 130.336 162.814C130.408 174.434 125.489 179.852 118.432 179.852ZM142.463 134.014C142.463 136.081 144.103 137.721 146.17 137.721C148.237 137.721 149.948 136.081 149.948 134.014C149.948 131.947 148.237 130.236 146.17 130.236C144.103 130.236 142.463 131.947 142.463 134.014ZM148.95 175.931V144.564H143.105V175.931L142.82 180.208H149.235L148.95 175.931ZM162.964 180.208H157.19V144.564H163.178L163.107 151.408C173.015 139.646 191.548 141.57 191.691 155.614V180.208H185.917V156.897C185.917 143.923 172.445 141.998 163.107 152.406L162.964 180.208ZM245.478 169.657H244.836C237.779 180.778 225.661 181.919 225.732 173.222L225.946 148.699H237.138L240.702 144.564H225.946V135.939L215.539 148.699H220.172V171.155C220.172 183.131 236.853 185.412 245.478 169.657ZM246.978 130.806V180.208H252.823V152.477C262.09 141.927 275.705 143.923 275.705 156.897V180.208H281.407V155.614C281.407 141.499 262.66 139.646 252.823 151.408V125.531L246.978 130.806ZM324.457 169.23H324.029C320.679 175.432 314.05 178.355 309.915 178.355C296.585 178.355 290.669 164.953 292.522 155.543H313.194C315.618 155.471 321.392 154.972 321.392 150.41C321.392 149.84 321.249 145.919 314.834 144.422C308.989 143.067 304.997 143.709 303.072 144.137C291.596 147.131 287.604 157.824 287.604 157.824C283.897 167.59 290.954 181.206 304.141 181.206C308.276 181.206 312.624 180.351 317.258 177.356C323.174 173.863 324.457 169.23 324.457 169.23ZM295.231 149.84C298.439 145.919 306.779 143.78 312.054 147.131C315.19 149.127 316.972 153.475 312.054 153.832L308.347 154.046L292.736 154.545C293.235 152.691 294.091 151.123 295.231 149.84Z" fill="url(#paint1_radial)"/>
<path d="M164.98 234.521V228.105C156.355 223.115 150.438 224.754 147.729 225.325C136.253 228.319 132.546 239.012 132.546 239.012C128.839 248.778 135.611 262.394 148.799 262.394C153.147 262.394 157.852 261.539 162.627 258.545C168.615 255.051 169.898 250.418 169.898 250.418H169.756C166.334 256.62 159.348 259.471 155.143 259.471C138.463 259.471 132.404 238.869 140.459 230.315C145.52 224.113 158.493 229.103 164.98 234.521ZM179.901 203.939L174.056 209.143V255.123C174.341 260.754 177.049 261.396 184.178 261.396C181.469 260.826 180.043 257.404 179.901 250.56C179.544 235.02 179.544 219.479 179.901 203.939ZM188.06 247.923L187.988 225.752H193.905V246.64C193.905 259.828 208.589 266.386 217.214 252.057V250.489L217.357 225.752H223.131V250.56C223.131 257.76 224.699 260.897 227.408 261.467C219.068 261.467 217.499 258.188 217.214 253.269C208.161 268.881 188.131 262.251 188.06 247.923ZM237.366 229.388V204.01L231.593 208.929V262.394C231.593 262.394 236.582 252.77 236.582 255.55C236.582 262.394 247.56 262.394 247.56 262.394C259.464 262.394 267.305 248.208 267.305 248.208C275.218 231.741 254.617 216.414 237.366 229.388ZM237.58 254.909L237.366 230.529C263.812 210.711 272.224 261.253 247.56 261.253C242.356 261.253 237.58 259.543 237.58 254.909Z" fill="url(#paint2_radial)"/>
<path d="M704.907 28.7228V379.218" stroke="#545454" stroke-width="2" stroke-dasharray="4 4"/>
<path d="M65.192 340.208C65.192 341.887 65.6593 343.25 66.5939 344.295C67.5285 345.325 68.8036 345.84 70.4194 345.84C71.7183 345.84 72.8984 345.38 73.9597 344.461L75.8606 346.933C74.229 348.184 72.3678 348.81 70.2768 348.81C67.7581 348.81 65.6751 348.01 64.0277 346.41C62.3803 344.794 61.5565 342.727 61.5565 340.208C61.5565 337.784 62.4199 335.749 64.1465 334.101C65.8731 332.438 67.9641 331.606 70.4194 331.606C72.0985 331.606 73.8013 332.145 75.528 333.222L73.8885 335.859C72.7638 335.004 71.6074 334.576 70.4194 334.576C68.9145 334.576 67.6631 335.123 66.6651 336.216C65.683 337.293 65.192 338.624 65.192 340.208ZM89.4709 348.525H86.5484L86.287 346.814C85.3365 348.145 84.0455 348.81 82.414 348.81C81.0517 348.81 79.9428 348.263 79.0874 347.17C78.3429 346.204 77.9707 344.652 77.9707 342.513V336.026H81.3447V342.347C81.3447 343.63 81.4715 344.525 81.7249 345.032C82.0259 345.618 82.5803 345.911 83.3882 345.911C83.8951 345.911 84.394 345.768 84.8851 345.483C85.392 345.198 85.7959 344.81 86.0969 344.319V336.026H89.4709V348.525ZM101.403 337.38L99.5492 339.424C98.7575 338.727 97.9338 338.378 97.0784 338.378C96.7457 338.378 96.4606 338.465 96.223 338.64C95.9854 338.814 95.8666 339.044 95.8666 339.329C95.8666 339.677 96.025 339.97 96.3418 340.208C96.6745 340.43 97.1734 340.675 97.8387 340.945C98.2981 341.135 98.6387 341.285 98.8605 341.396C99.0819 341.491 99.3908 341.657 99.7868 341.895C100.199 342.133 100.5 342.37 100.69 342.608C100.896 342.846 101.078 343.154 101.236 343.535C101.41 343.915 101.498 344.335 101.498 344.794C101.498 346.093 101.022 347.091 100.072 347.788C99.1374 348.469 98.013 348.81 96.6982 348.81C94.7657 348.81 93.0866 348.097 91.6609 346.671L93.5855 344.675C94.1083 345.182 94.5835 345.554 95.0112 345.792C95.4547 346.03 95.9616 346.149 96.5319 346.149C96.9279 346.149 97.2922 346.053 97.6249 345.863C97.9576 345.673 98.1239 345.404 98.1239 345.055C98.1239 344.96 98.108 344.873 98.0764 344.794C98.0605 344.699 98.0209 344.612 97.9575 344.533C97.8942 344.453 97.8308 344.382 97.7675 344.319C97.7199 344.255 97.6407 344.192 97.5299 344.129C97.419 344.05 97.3239 343.986 97.2447 343.939C97.1655 343.891 97.0467 343.836 96.8883 343.772C96.7457 343.693 96.6269 343.638 96.5319 343.606C96.4527 343.558 96.326 343.503 96.1517 343.44C95.9775 343.36 95.8428 343.297 95.7478 343.25C94.7815 342.838 94.0132 342.37 93.443 341.848C92.8886 341.309 92.6113 340.549 92.6113 339.566C92.6113 338.362 93.047 337.428 93.9182 336.762C94.8053 336.081 95.8587 335.741 97.0784 335.741C98.805 335.741 100.246 336.287 101.403 337.38ZM110.894 338.83H107.71V343.677C107.71 344.152 107.726 344.509 107.758 344.747C107.853 345.539 108.217 345.935 108.851 345.935C109.278 345.935 109.73 345.816 110.205 345.578L111.25 348.073C110.411 348.564 109.421 348.81 108.28 348.81C107.33 348.81 106.53 348.572 105.881 348.097C105.247 347.606 104.811 346.949 104.574 346.125C104.415 345.618 104.336 344.921 104.336 344.034V338.83H102.839V336.026H104.336L104.859 333.269H107.71V336.026H110.894V338.83ZM118.876 335.741C120.761 335.741 122.321 336.366 123.557 337.618C124.792 338.869 125.41 340.422 125.41 342.275C125.41 344.129 124.792 345.681 123.557 346.933C122.321 348.184 120.761 348.81 118.876 348.81C116.975 348.81 115.407 348.184 114.171 346.933C112.936 345.681 112.318 344.129 112.318 342.275C112.318 340.422 112.936 338.869 114.171 337.618C115.407 336.366 116.975 335.741 118.876 335.741ZM121.109 344.889C121.68 344.192 121.965 343.321 121.965 342.275C121.965 341.23 121.68 340.366 121.109 339.685C120.539 338.988 119.795 338.64 118.876 338.64C117.957 338.64 117.205 338.988 116.618 339.685C116.048 340.382 115.763 341.246 115.763 342.275C115.763 343.305 116.048 344.168 116.618 344.865C117.205 345.562 117.957 345.911 118.876 345.911C119.795 345.911 120.539 345.57 121.109 344.889ZM146.705 348.525H143.331V342.204C143.331 340.921 143.204 340.026 142.951 339.519C142.65 338.933 142.095 338.64 141.287 338.64C140.305 338.64 139.489 339.115 138.84 340.065C138.919 340.747 138.959 341.404 138.959 342.038V348.525H135.585V342.204C135.585 340.873 135.458 339.97 135.204 339.495C134.903 338.925 134.373 338.64 133.612 338.64C132.725 338.64 131.925 339.052 131.213 339.875V348.525H127.839V336.026H130.761L130.999 337.547C131.949 336.343 133.153 335.741 134.61 335.741C135.323 335.741 136.012 335.939 136.678 336.335C137.343 336.715 137.834 337.214 138.151 337.832C139.133 336.438 140.519 335.741 142.309 335.741C143.655 335.741 144.748 336.279 145.588 337.356C146.332 338.323 146.705 339.883 146.705 342.038V348.525ZM164.471 337.38L162.618 339.424C161.826 338.727 161.002 338.378 160.146 338.378C159.814 338.378 159.529 338.465 159.291 338.64C159.053 338.814 158.935 339.044 158.935 339.329C158.935 339.677 159.093 339.97 159.41 340.208C159.743 340.43 160.241 340.675 160.907 340.945C161.366 341.135 161.707 341.285 161.929 341.396C162.15 341.491 162.459 341.657 162.855 341.895C163.267 342.133 163.568 342.37 163.758 342.608C163.964 342.846 164.146 343.154 164.305 343.535C164.479 343.915 164.566 344.335 164.566 344.794C164.566 346.093 164.091 347.091 163.14 347.788C162.206 348.469 161.081 348.81 159.766 348.81C157.834 348.81 156.155 348.097 154.729 346.671L156.654 344.675C157.176 345.182 157.652 345.554 158.079 345.792C158.523 346.03 159.03 346.149 159.6 346.149C159.996 346.149 160.36 346.053 160.693 345.863C161.026 345.673 161.192 345.404 161.192 345.055C161.192 344.96 161.176 344.873 161.144 344.794C161.129 344.699 161.089 344.612 161.026 344.533C160.962 344.453 160.899 344.382 160.836 344.319C160.788 344.255 160.709 344.192 160.598 344.129C160.487 344.05 160.392 343.986 160.313 343.939C160.234 343.891 160.115 343.836 159.956 343.772C159.814 343.693 159.695 343.638 159.6 343.606C159.521 343.558 159.394 343.503 159.22 343.44C159.046 343.36 158.911 343.297 158.816 343.25C157.85 342.838 157.081 342.37 156.511 341.848C155.957 341.309 155.679 340.549 155.679 339.566C155.679 338.362 156.115 337.428 156.986 336.762C157.873 336.081 158.927 335.741 160.146 335.741C161.873 335.741 163.315 336.287 164.471 337.38ZM173.962 338.83H170.778V343.677C170.778 344.152 170.794 344.509 170.826 344.747C170.921 345.539 171.285 345.935 171.919 345.935C172.347 345.935 172.798 345.816 173.273 345.578L174.319 348.073C173.479 348.564 172.489 348.81 171.349 348.81C170.398 348.81 169.598 348.572 168.949 348.097C168.315 347.606 167.88 346.949 167.642 346.125C167.484 345.618 167.404 344.921 167.404 344.034V338.83H165.907V336.026H167.404L167.927 333.269H170.778V336.026H173.962V338.83ZM181.944 335.741C183.829 335.741 185.389 336.366 186.625 337.618C187.861 338.869 188.478 340.422 188.478 342.275C188.478 344.129 187.861 345.681 186.625 346.933C185.389 348.184 183.829 348.81 181.944 348.81C180.043 348.81 178.475 348.184 177.239 346.933C176.004 345.681 175.386 344.129 175.386 342.275C175.386 340.422 176.004 338.869 177.239 337.618C178.475 336.366 180.043 335.741 181.944 335.741ZM184.178 344.889C184.748 344.192 185.033 343.321 185.033 342.275C185.033 341.23 184.748 340.366 184.178 339.685C183.607 338.988 182.863 338.64 181.944 338.64C181.025 338.64 180.273 338.988 179.687 339.685C179.117 340.382 178.831 341.246 178.831 342.275C178.831 343.305 179.117 344.168 179.687 344.865C180.273 345.562 181.025 345.911 181.944 345.911C182.863 345.911 183.607 345.57 184.178 344.889ZM193.829 336.026L194.091 337.689C194.883 336.39 195.857 335.741 197.013 335.741C197.568 335.741 198.106 335.836 198.629 336.026L197.821 338.972C197.457 338.782 197.061 338.687 196.633 338.687C195.619 338.687 194.835 339.147 194.281 340.065V348.525H190.907V336.026H193.829ZM211.151 343.107H202.36C202.486 343.994 202.819 344.715 203.358 345.269C203.912 345.824 204.625 346.101 205.496 346.101C206.256 346.101 206.882 345.951 207.373 345.65C207.864 345.349 208.324 344.881 208.751 344.248L210.961 345.745C210.232 346.806 209.425 347.582 208.537 348.073C207.666 348.564 206.573 348.81 205.258 348.81C203.373 348.81 201.845 348.216 200.673 347.028C199.516 345.84 198.938 344.303 198.938 342.418C198.938 340.533 199.548 338.949 200.768 337.665C201.987 336.382 203.492 335.741 205.282 335.741C207.025 335.741 208.466 336.287 209.607 337.38C210.747 338.473 211.318 339.852 211.318 341.515C211.318 341.99 211.262 342.521 211.151 343.107ZM202.526 340.802H207.872C207.841 340.057 207.587 339.471 207.112 339.044C206.652 338.6 206.074 338.378 205.377 338.378C203.888 338.378 202.938 339.186 202.526 340.802Z" fill="white"/>
<path d="M278.858 336.382L273.892 348.525H271.468L266.621 336.335V348.525H263.223V331.891H268.237L272.704 343.487L277.337 331.891H282.256V348.525H278.858V336.382ZM297.083 343.107H288.292C288.419 343.994 288.751 344.715 289.29 345.269C289.844 345.824 290.557 346.101 291.428 346.101C292.189 346.101 292.814 345.951 293.305 345.65C293.797 345.349 294.256 344.881 294.684 344.248L296.893 345.745C296.165 346.806 295.357 347.582 294.47 348.073C293.599 348.564 292.506 348.81 291.191 348.81C289.306 348.81 287.777 348.216 286.605 347.028C285.449 345.84 284.87 344.303 284.87 342.418C284.87 340.533 285.48 338.949 286.7 337.665C287.92 336.382 289.425 335.741 291.215 335.741C292.957 335.741 294.399 336.287 295.539 337.38C296.68 338.473 297.25 339.852 297.25 341.515C297.25 341.99 297.194 342.521 297.083 343.107ZM288.458 340.802H293.804C293.773 340.057 293.519 339.471 293.044 339.044C292.585 338.6 292.007 338.378 291.31 338.378C289.821 338.378 288.87 339.186 288.458 340.802ZM302.618 336.026L302.879 337.689C303.671 336.39 304.645 335.741 305.802 335.741C306.356 335.741 306.895 335.836 307.417 336.026L306.61 338.972C306.245 338.782 305.849 338.687 305.422 338.687C304.408 338.687 303.624 339.147 303.069 340.065V348.525H299.695V336.026H302.618ZM316.756 344.96L318.561 347.265C317.405 348.295 315.908 348.81 314.071 348.81C312.217 348.81 310.696 348.208 309.508 347.004C308.32 345.784 307.726 344.208 307.726 342.275C307.726 340.438 308.328 338.893 309.532 337.642C310.752 336.374 312.296 335.741 314.166 335.741C315.845 335.741 317.31 336.255 318.561 337.285L316.827 339.638C316.114 338.972 315.306 338.64 314.403 338.64C313.469 338.64 312.692 338.996 312.075 339.709C311.473 340.406 311.172 341.261 311.172 342.275C311.172 343.321 311.473 344.192 312.075 344.889C312.692 345.57 313.453 345.911 314.356 345.911C315.306 345.911 316.106 345.594 316.756 344.96ZM324.092 330.703V337.499C325.058 336.327 326.286 335.741 327.775 335.741C329.137 335.741 330.246 336.287 331.101 337.38C331.846 338.347 332.218 339.899 332.218 342.038V348.525H328.844V342.204C328.844 340.921 328.717 340.026 328.464 339.519C328.163 338.933 327.608 338.64 326.8 338.64C326.294 338.64 325.787 338.782 325.28 339.067C324.789 339.352 324.393 339.741 324.092 340.232V348.525H320.718V330.703H324.092ZM351.848 348.525H348.926L348.664 347.455C347.936 348.358 346.803 348.81 345.267 348.81C344.031 348.81 342.97 348.453 342.083 347.741C341.211 347.028 340.776 346.061 340.776 344.842C340.776 343.875 341.061 343.075 341.631 342.442C342.201 341.808 342.867 341.38 343.627 341.158C344.403 340.921 345.267 340.802 346.217 340.802C346.898 340.802 347.651 340.889 348.474 341.063V340.873C348.474 339.194 347.651 338.354 346.003 338.354C344.879 338.354 343.619 338.719 342.225 339.448L341.322 337.024C343.065 336.168 344.855 335.741 346.692 335.741C348.387 335.741 349.67 336.208 350.542 337.143C351.413 338.061 351.848 339.352 351.848 341.016V348.525ZM348.474 345.388V343.083C347.825 342.941 347.255 342.869 346.764 342.869C346.035 342.869 345.401 343.028 344.863 343.345C344.34 343.646 344.079 344.129 344.079 344.794C344.079 345.317 344.261 345.729 344.625 346.03C345.005 346.315 345.457 346.457 345.979 346.457C346.851 346.457 347.682 346.101 348.474 345.388ZM363.187 344.96L364.993 347.265C363.837 348.295 362.34 348.81 360.502 348.81C358.649 348.81 357.128 348.208 355.94 347.004C354.752 345.784 354.158 344.208 354.158 342.275C354.158 340.438 354.76 338.893 355.964 337.642C357.184 336.374 358.728 335.741 360.597 335.741C362.276 335.741 363.742 336.255 364.993 337.285L363.259 339.638C362.546 338.972 361.738 338.64 360.835 338.64C359.9 338.64 359.124 338.996 358.506 339.709C357.904 340.406 357.603 341.261 357.603 342.275C357.603 343.321 357.904 344.192 358.506 344.889C359.124 345.57 359.885 345.911 360.787 345.911C361.738 345.911 362.538 345.594 363.187 344.96ZM375.323 344.96L377.129 347.265C375.973 348.295 374.476 348.81 372.638 348.81C370.785 348.81 369.264 348.208 368.076 347.004C366.888 345.784 366.293 344.208 366.293 342.275C366.293 340.438 366.896 338.893 368.1 337.642C369.32 336.374 370.864 335.741 372.733 335.741C374.412 335.741 375.878 336.255 377.129 337.285L375.394 339.638C374.682 338.972 373.874 338.64 372.971 338.64C372.036 338.64 371.26 338.996 370.642 339.709C370.04 340.406 369.739 341.261 369.739 342.275C369.739 343.321 370.04 344.192 370.642 344.889C371.26 345.57 372.02 345.911 372.923 345.911C373.874 345.911 374.674 345.594 375.323 344.96ZM390.642 343.107H381.85C381.977 343.994 382.31 344.715 382.848 345.269C383.403 345.824 384.116 346.101 384.987 346.101C385.747 346.101 386.373 345.951 386.864 345.65C387.355 345.349 387.814 344.881 388.242 344.248L390.452 345.745C389.723 346.806 388.915 347.582 388.028 348.073C387.157 348.564 386.064 348.81 384.749 348.81C382.864 348.81 381.336 348.216 380.163 347.028C379.007 345.84 378.429 344.303 378.429 342.418C378.429 340.533 379.039 338.949 380.258 337.665C381.478 336.382 382.983 335.741 384.773 335.741C386.516 335.741 387.957 336.287 389.098 337.38C390.238 338.473 390.808 339.852 390.808 341.515C390.808 341.99 390.753 342.521 390.642 343.107ZM382.017 340.802H387.363C387.331 340.057 387.078 339.471 386.603 339.044C386.143 338.6 385.565 338.378 384.868 338.378C383.379 338.378 382.429 339.186 382.017 340.802ZM401.903 337.38L400.049 339.424C399.257 338.727 398.434 338.378 397.578 338.378C397.246 338.378 396.96 338.465 396.723 338.64C396.485 338.814 396.366 339.044 396.366 339.329C396.366 339.677 396.525 339.97 396.842 340.208C397.174 340.43 397.673 340.675 398.339 340.945C398.798 341.135 399.139 341.285 399.36 341.396C399.582 341.491 399.891 341.657 400.287 341.895C400.699 342.133 401 342.37 401.19 342.608C401.396 342.846 401.578 343.154 401.736 343.535C401.911 343.915 401.998 344.335 401.998 344.794C401.998 346.093 401.523 347.091 400.572 347.788C399.637 348.469 398.513 348.81 397.198 348.81C395.265 348.81 393.586 348.097 392.161 346.671L394.085 344.675C394.608 345.182 395.083 345.554 395.511 345.792C395.955 346.03 396.461 346.149 397.032 346.149C397.428 346.149 397.792 346.053 398.125 345.863C398.457 345.673 398.624 345.404 398.624 345.055C398.624 344.96 398.608 344.873 398.576 344.794C398.56 344.699 398.521 344.612 398.457 344.533C398.394 344.453 398.331 344.382 398.267 344.319C398.22 344.255 398.141 344.192 398.03 344.129C397.919 344.05 397.824 343.986 397.745 343.939C397.665 343.891 397.547 343.836 397.388 343.772C397.246 343.693 397.127 343.638 397.032 343.606C396.953 343.558 396.826 343.503 396.652 343.44C396.477 343.36 396.343 343.297 396.248 343.25C395.281 342.838 394.513 342.37 393.943 341.848C393.388 341.309 393.111 340.549 393.111 339.566C393.111 338.362 393.547 337.428 394.418 336.762C395.305 336.081 396.359 335.741 397.578 335.741C399.305 335.741 400.746 336.287 401.903 337.38ZM413.342 337.38L411.488 339.424C410.696 338.727 409.872 338.378 409.017 338.378C408.684 338.378 408.399 338.465 408.162 338.64C407.924 338.814 407.805 339.044 407.805 339.329C407.805 339.677 407.964 339.97 408.281 340.208C408.613 340.43 409.112 340.675 409.777 340.945C410.237 341.135 410.577 341.285 410.799 341.396C411.021 341.491 411.33 341.657 411.726 341.895C412.138 342.133 412.439 342.37 412.629 342.608C412.835 342.846 413.017 343.154 413.175 343.535C413.35 343.915 413.437 344.335 413.437 344.794C413.437 346.093 412.961 347.091 412.011 347.788C411.076 348.469 409.952 348.81 408.637 348.81C406.704 348.81 405.025 348.097 403.6 346.671L405.524 344.675C406.047 345.182 406.522 345.554 406.95 345.792C407.393 346.03 407.9 346.149 408.471 346.149C408.867 346.149 409.231 346.053 409.564 345.863C409.896 345.673 410.063 345.404 410.063 345.055C410.063 344.96 410.047 344.873 410.015 344.794C409.999 344.699 409.96 344.612 409.896 344.533C409.833 344.453 409.77 344.382 409.706 344.319C409.659 344.255 409.579 344.192 409.469 344.129C409.358 344.05 409.263 343.986 409.183 343.939C409.104 343.891 408.985 343.836 408.827 343.772C408.684 343.693 408.566 343.638 408.471 343.606C408.391 343.558 408.265 343.503 408.09 343.44C407.916 343.36 407.782 343.297 407.686 343.25C406.72 342.838 405.952 342.37 405.382 341.848C404.827 341.309 404.55 340.549 404.55 339.566C404.55 338.362 404.986 337.428 405.857 336.762C406.744 336.081 407.797 335.741 409.017 335.741C410.744 335.741 412.185 336.287 413.342 337.38Z" fill="white"/>
<path d="M465.191 331.891H470.466C471.179 331.891 471.876 331.986 472.557 332.176C473.238 332.366 473.887 332.652 474.505 333.032C475.123 333.396 475.614 333.919 475.978 334.6C476.358 335.265 476.548 336.026 476.548 336.881C476.548 338.085 476.208 339.075 475.527 339.852C474.846 340.612 473.982 341.166 472.937 341.515C474.616 343.875 476.311 346.212 478.022 348.525H473.745L469.183 341.895H468.589V348.525H465.191V331.891ZM468.589 334.766V339.02H469.919C470.822 339.02 471.543 338.853 472.081 338.521C472.636 338.172 472.913 337.65 472.913 336.953C472.913 336.303 472.675 335.78 472.2 335.384C471.741 334.972 471.131 334.766 470.371 334.766H468.589ZM490.559 343.107H481.767C481.894 343.994 482.226 344.715 482.765 345.269C483.319 345.824 484.032 346.101 484.903 346.101C485.664 346.101 486.289 345.951 486.781 345.65C487.272 345.349 487.731 344.881 488.159 344.248L490.368 345.745C489.64 346.806 488.832 347.582 487.945 348.073C487.074 348.564 485.981 348.81 484.666 348.81C482.781 348.81 481.252 348.216 480.08 347.028C478.924 345.84 478.345 344.303 478.345 342.418C478.345 340.533 478.955 338.949 480.175 337.665C481.395 336.382 482.9 335.741 484.69 335.741C486.432 335.741 487.874 336.287 489.014 337.38C490.155 338.473 490.725 339.852 490.725 341.515C490.725 341.99 490.669 342.521 490.559 343.107ZM481.933 340.802H487.28C487.248 340.057 486.994 339.471 486.519 339.044C486.06 338.6 485.482 338.378 484.785 338.378C483.296 338.378 482.345 339.186 481.933 340.802ZM500.489 336.026H504.243L499.11 348.525H496.354L491.65 336.026H495.38L497.899 343.725H497.946L500.489 336.026ZM517.22 343.107H508.429C508.555 343.994 508.888 344.715 509.427 345.269C509.981 345.824 510.694 346.101 511.565 346.101C512.325 346.101 512.951 345.951 513.442 345.65C513.933 345.349 514.393 344.881 514.82 344.248L517.03 345.745C516.301 346.806 515.494 347.582 514.606 348.073C513.735 348.564 512.642 348.81 511.328 348.81C509.443 348.81 507.914 348.216 506.742 347.028C505.585 345.84 505.007 344.303 505.007 342.418C505.007 340.533 505.617 338.949 506.837 337.665C508.056 336.382 509.561 335.741 511.351 335.741C513.094 335.741 514.535 336.287 515.676 337.38C516.816 338.473 517.387 339.852 517.387 341.515C517.387 341.99 517.331 342.521 517.22 343.107ZM508.595 340.802H513.941C513.91 340.057 513.656 339.471 513.181 339.044C512.721 338.6 512.143 338.378 511.446 338.378C509.957 338.378 509.007 339.186 508.595 340.802ZM519.831 336.026H522.754L523.015 337.737C523.965 336.406 525.256 335.741 526.888 335.741C528.25 335.741 529.359 336.287 530.214 337.38C530.959 338.347 531.331 339.899 531.331 342.038V348.525H527.957V342.204C527.957 340.921 527.83 340.026 527.577 339.519C527.276 338.933 526.722 338.64 525.914 338.64C525.407 338.64 524.9 338.782 524.393 339.067C523.902 339.352 523.506 339.741 523.205 340.232V348.525H519.831V336.026ZM545.924 348.525H543.002L542.74 346.814C541.79 348.145 540.499 348.81 538.867 348.81C537.505 348.81 536.396 348.263 535.541 347.17C534.796 346.204 534.424 344.652 534.424 342.513V336.026H537.798V342.347C537.798 343.63 537.925 344.525 538.178 345.032C538.479 345.618 539.034 345.911 539.842 345.911C540.348 345.911 540.847 345.768 541.339 345.483C541.845 345.198 542.249 344.81 542.55 344.319V336.026H545.924V348.525ZM560.565 343.107H551.774C551.9 343.994 552.233 344.715 552.771 345.269C553.326 345.824 554.039 346.101 554.91 346.101C555.67 346.101 556.296 345.951 556.787 345.65C557.278 345.349 557.737 344.881 558.165 344.248L560.375 345.745C559.646 346.806 558.838 347.582 557.951 348.073C557.08 348.564 555.987 348.81 554.672 348.81C552.787 348.81 551.259 348.216 550.087 347.028C548.93 345.84 548.352 344.303 548.352 342.418C548.352 340.533 548.962 338.949 550.182 337.665C551.401 336.382 552.906 335.741 554.696 335.741C556.439 335.741 557.88 336.287 559.021 337.38C560.161 338.473 560.731 339.852 560.731 341.515C560.731 341.99 560.676 342.521 560.565 343.107ZM551.94 340.802H557.286C557.254 340.057 557.001 339.471 556.526 339.044C556.066 338.6 555.488 338.378 554.791 338.378C553.302 338.378 552.352 339.186 551.94 340.802ZM577.766 337.38L575.913 339.424C575.121 338.727 574.297 338.378 573.441 338.378C573.109 338.378 572.824 338.465 572.586 338.64C572.348 338.814 572.23 339.044 572.23 339.329C572.23 339.677 572.388 339.97 572.705 340.208C573.038 340.43 573.536 340.675 574.202 340.945C574.661 341.135 575.002 341.285 575.224 341.396C575.445 341.491 575.754 341.657 576.15 341.895C576.562 342.133 576.863 342.37 577.053 342.608C577.259 342.846 577.441 343.154 577.6 343.535C577.774 343.915 577.861 344.335 577.861 344.794C577.861 346.093 577.386 347.091 576.435 347.788C575.501 348.469 574.376 348.81 573.061 348.81C571.129 348.81 569.45 348.097 568.024 346.671L569.949 344.675C570.471 345.182 570.947 345.554 571.374 345.792C571.818 346.03 572.325 346.149 572.895 346.149C573.291 346.149 573.655 346.053 573.988 345.863C574.321 345.673 574.487 345.404 574.487 345.055C574.487 344.96 574.471 344.873 574.439 344.794C574.424 344.699 574.384 344.612 574.321 344.533C574.257 344.453 574.194 344.382 574.131 344.319C574.083 344.255 574.004 344.192 573.893 344.129C573.782 344.05 573.687 343.986 573.608 343.939C573.529 343.891 573.41 343.836 573.251 343.772C573.109 343.693 572.99 343.638 572.895 343.606C572.816 343.558 572.689 343.503 572.515 343.44C572.341 343.36 572.206 343.297 572.111 343.25C571.145 342.838 570.376 342.37 569.806 341.848C569.252 341.309 568.974 340.549 568.974 339.566C568.974 338.362 569.41 337.428 570.281 336.762C571.168 336.081 572.222 335.741 573.441 335.741C575.168 335.741 576.61 336.287 577.766 337.38ZM580.556 336.026H583.478L583.74 337.57C584.152 336.953 584.714 336.493 585.427 336.192C586.156 335.891 586.884 335.741 587.613 335.741C589.26 335.741 590.638 336.382 591.747 337.665C592.872 338.933 593.434 340.485 593.434 342.323C593.434 344.113 592.872 345.642 591.747 346.909C590.638 348.176 589.252 348.81 587.589 348.81C586.021 348.81 584.801 348.311 583.93 347.313V354.465H580.556V336.026ZM583.93 340.303V344.556C584.674 345.459 585.641 345.911 586.829 345.911C587.843 345.911 588.619 345.547 589.157 344.818C589.712 344.073 589.989 343.21 589.989 342.228C589.989 341.246 589.704 340.406 589.134 339.709C588.563 338.996 587.811 338.64 586.876 338.64C585.577 338.64 584.595 339.194 583.93 340.303ZM599.222 330.703V348.525H595.848V330.703H599.222ZM605.881 348.525H602.507V336.026H605.881V348.525ZM605.881 334.291H602.507V331.416H605.881V334.291ZM615.868 338.83H612.684V343.677C612.684 344.153 612.699 344.509 612.731 344.747C612.826 345.539 613.19 345.935 613.824 345.935C614.252 345.935 614.703 345.816 615.178 345.578L616.224 348.073C615.384 348.564 614.394 348.81 613.254 348.81C612.303 348.81 611.503 348.572 610.854 348.097C610.22 347.606 609.785 346.949 609.547 346.125C609.389 345.618 609.31 344.921 609.31 344.034V338.83H607.813V336.026H609.31L609.832 333.269H612.684V336.026H615.868V338.83ZM626.796 337.38L624.942 339.424C624.15 338.727 623.326 338.378 622.471 338.378C622.138 338.378 621.853 338.465 621.616 338.64C621.378 338.814 621.259 339.044 621.259 339.329C621.259 339.677 621.418 339.97 621.735 340.208C622.067 340.43 622.566 340.675 623.231 340.945C623.691 341.135 624.031 341.285 624.253 341.396C624.475 341.491 624.784 341.657 625.18 341.895C625.592 342.133 625.893 342.37 626.083 342.608C626.289 342.846 626.471 343.154 626.629 343.535C626.803 343.915 626.891 344.335 626.891 344.794C626.891 346.093 626.415 347.091 625.465 347.788C624.53 348.469 623.406 348.81 622.091 348.81C620.158 348.81 618.479 348.097 617.054 346.671L618.978 344.675C619.501 345.182 619.976 345.554 620.404 345.792C620.847 346.03 621.354 346.149 621.925 346.149C622.321 346.149 622.685 346.053 623.018 345.863C623.35 345.673 623.517 345.404 623.517 345.055C623.517 344.96 623.501 344.873 623.469 344.794C623.453 344.699 623.414 344.612 623.35 344.533C623.287 344.453 623.224 344.382 623.16 344.319C623.113 344.255 623.033 344.192 622.923 344.129C622.812 344.05 622.717 343.986 622.637 343.939C622.558 343.891 622.439 343.836 622.281 343.772C622.138 343.693 622.02 343.638 621.925 343.606C621.845 343.558 621.719 343.503 621.544 343.44C621.37 343.36 621.236 343.297 621.14 343.25C620.174 342.838 619.406 342.37 618.836 341.848C618.281 341.309 618.004 340.549 618.004 339.566C618.004 338.362 618.44 337.428 619.311 336.762C620.198 336.081 621.251 335.741 622.471 335.741C624.198 335.741 625.639 336.287 626.796 337.38Z" fill="white"/>
<path d="M61.6536 313.871H62.8733V309.394H67.0315V308.23H62.8733V305.333H67.7106V304.168H61.6536V313.871ZM70.415 311.75C70.415 313.137 71.1219 313.982 72.5496 313.982C73.5059 313.982 74.4069 313.414 74.9197 312.582V313.871H76.084V306.885H74.9197V309.699C74.9197 310.683 74.7257 311.459 74.3237 312.055C73.9217 312.638 73.4366 312.929 72.8683 312.929C72.009 312.929 71.5793 312.457 71.5793 311.501V306.885H70.415V311.75ZM80.3686 311.238C80.3686 312.97 81.3804 313.982 83.0021 313.982C84.4574 313.982 85.4415 313.109 85.6772 311.445L84.6238 311.238C84.4436 312.36 83.903 312.929 83.0021 312.929C82.018 312.929 81.5329 312.36 81.5329 311.238V304.168H78.442V305.222H80.3686V311.238ZM88.9637 311.238C88.9637 312.97 89.9755 313.982 91.5972 313.982C93.0525 313.982 94.0366 313.109 94.2723 311.445L93.2189 311.238C93.0387 312.36 92.4981 312.929 91.5972 312.929C90.6131 312.929 90.128 312.36 90.128 311.238V304.168H87.0371V305.222H88.9637V311.238ZM99.4166 312L97.0738 306.885H95.7709L98.7925 313.4L97.4341 316.699H98.5984L102.743 306.885H101.482L99.4166 312ZM114.735 307.939V311.556C114.735 313.164 115.567 313.982 117.106 313.982C117.937 313.982 118.658 313.677 119.254 313.081L118.824 312.097C118.298 312.651 117.729 312.929 117.106 312.929C116.302 312.929 115.9 312.457 115.9 311.515V307.939H119.309V306.885H115.9V304.057L114.735 304.792V306.885H112.878V307.939H114.735ZM123.288 311.861C123.288 311.071 123.968 310.572 125.146 310.572H126.67V310.794C126.67 311.501 126.435 312.042 125.963 312.402C125.506 312.748 124.993 312.929 124.439 312.929C123.732 312.929 123.288 312.527 123.288 311.861ZM127.835 309.463C127.835 307.62 126.781 306.774 125.063 306.774C123.773 306.774 122.706 307.537 122.387 308.743L123.413 309.02C123.635 308.313 124.272 307.828 125.063 307.828C126.005 307.828 126.67 308.257 126.67 309.269V309.574H125.257C123.275 309.574 122.096 310.35 122.096 311.861C122.096 313.234 123.025 313.982 124.259 313.982C125.298 313.982 126.282 313.539 126.726 312.887L126.892 313.871H127.835V309.463ZM133.076 307.911V312.845H130.664V313.871H136.818V312.845H134.24V306.885H130.941V307.911H133.076ZM132.618 305.028C132.618 305.541 133.034 305.97 133.575 305.97C134.115 305.97 134.531 305.568 134.531 305.028C134.531 304.487 134.115 304.057 133.575 304.057C133.034 304.057 132.618 304.487 132.618 305.028ZM140.535 311.238C140.535 312.97 141.547 313.982 143.168 313.982C144.624 313.982 145.608 313.109 145.843 311.445L144.79 311.238C144.61 312.36 144.069 312.929 143.168 312.929C142.184 312.929 141.699 312.36 141.699 311.238V304.168H138.608V305.222H140.535V311.238ZM148.145 312.929C148.769 313.636 149.601 313.982 150.64 313.982C151.68 313.982 152.511 313.636 153.135 312.929C153.759 312.222 154.078 311.376 154.078 310.378C154.078 309.38 153.759 308.535 153.135 307.828C152.511 307.121 151.68 306.774 150.64 306.774C149.601 306.774 148.769 307.121 148.145 307.828C147.522 308.535 147.203 309.38 147.203 310.378C147.203 311.376 147.522 312.222 148.145 312.929ZM149.005 308.576C149.407 308.077 149.961 307.828 150.64 307.828C151.319 307.828 151.874 308.077 152.276 308.576C152.678 309.075 152.886 309.671 152.886 310.378C152.886 311.085 152.678 311.681 152.276 312.18C151.874 312.679 151.319 312.929 150.64 312.929C149.961 312.929 149.407 312.679 149.005 312.18C148.603 311.681 148.395 311.085 148.395 310.378C148.395 309.671 148.603 309.075 149.005 308.576ZM162.687 309.103C162.618 307.606 161.772 306.774 160.386 306.774C159.263 306.774 158.404 307.245 157.808 308.174V306.885H156.644V313.871H157.808V311.348C157.808 310.226 158.044 309.366 158.501 308.756C158.958 308.133 159.527 307.828 160.178 307.828C160.968 307.828 161.426 308.257 161.523 309.103H162.687ZM171.241 310.143C171.241 309.186 170.95 308.382 170.368 307.745C169.785 307.093 168.968 306.774 167.928 306.774C166.916 306.774 166.099 307.121 165.489 307.814C164.893 308.507 164.588 309.366 164.588 310.378C164.588 311.418 164.893 312.277 165.503 312.956C166.126 313.636 166.93 313.982 167.928 313.982C169.37 313.982 170.423 313.331 171.102 312.028L170.174 311.543C169.675 312.471 168.926 312.929 167.928 312.929C166.695 312.929 165.849 312.014 165.78 310.628H171.241V310.143ZM167.928 307.828C169.051 307.828 169.799 308.465 170.007 309.574H165.863C166.099 308.479 166.833 307.828 167.928 307.828ZM176.301 306.774C174.291 306.774 173.099 308.202 173.099 310.378C173.099 312.554 174.291 313.982 176.301 313.982C177.202 313.982 178.006 313.539 178.435 312.943V313.871H179.6V304.057H178.435V307.772C178.006 307.204 177.23 306.774 176.301 306.774ZM174.859 308.535C175.234 308.063 175.76 307.828 176.412 307.828C177.063 307.828 177.59 308.063 177.964 308.535C178.338 309.006 178.532 309.616 178.532 310.378C178.532 311.141 178.338 311.75 177.964 312.222C177.59 312.693 177.063 312.929 176.412 312.929C175.76 312.929 175.234 312.693 174.859 312.222C174.485 311.75 174.291 311.141 174.291 310.378C174.291 309.616 174.485 309.006 174.859 308.535Z" fill="white"/>
<path d="M262.229 310.503C262.229 311.584 262.548 312.43 263.199 313.053C263.851 313.677 264.669 313.982 265.667 313.982C266.665 313.982 267.482 313.677 268.134 313.053C268.785 312.43 269.104 311.584 269.104 310.503V304.168H267.884V310.586C267.884 311.917 267.067 312.818 265.667 312.818C264.267 312.818 263.449 311.917 263.449 310.586V304.168H262.229V310.503ZM277.201 309.006C277.201 307.62 276.494 306.774 275.066 306.774C274.11 306.774 273.209 307.343 272.696 308.174V306.885H271.532V313.871H272.696V311.057C272.696 310.073 272.89 309.297 273.292 308.715C273.694 308.119 274.179 307.828 274.747 307.828C275.607 307.828 276.036 308.299 276.036 309.255V313.871H277.201V309.006ZM282.482 307.911V312.845H280.071V313.871H286.225V312.845H283.647V306.885H280.348V307.911H282.482ZM282.025 305.028C282.025 305.541 282.441 305.97 282.981 305.97C283.522 305.97 283.938 305.568 283.938 305.028C283.938 304.487 283.522 304.057 282.981 304.057C282.441 304.057 282.025 304.487 282.025 305.028ZM291.147 306.774C289.137 306.774 287.945 308.202 287.945 310.378C287.945 312.554 289.137 313.982 291.147 313.982C292.076 313.982 292.852 313.552 293.282 312.984V316.699H294.446V306.885H293.282V307.814C292.852 307.218 292.048 306.774 291.147 306.774ZM289.706 308.535C290.08 308.063 290.607 307.828 291.258 307.828C291.91 307.828 292.436 308.063 292.81 308.535C293.185 309.006 293.379 309.616 293.379 310.378C293.379 311.141 293.185 311.75 292.81 312.222C292.436 312.693 291.91 312.929 291.258 312.929C290.607 312.929 290.08 312.693 289.706 312.222C289.331 311.75 289.137 311.141 289.137 310.378C289.137 309.616 289.331 309.006 289.706 308.535ZM297.179 311.75C297.179 313.137 297.885 313.982 299.313 313.982C300.269 313.982 301.17 313.414 301.683 312.582V313.871H302.847V306.885H301.683V309.699C301.683 310.683 301.489 311.459 301.087 312.055C300.685 312.638 300.2 312.929 299.632 312.929C298.772 312.929 298.343 312.457 298.343 311.501V306.885H297.179V311.75ZM312.052 310.143C312.052 309.186 311.761 308.382 311.179 307.745C310.597 307.093 309.779 306.774 308.739 306.774C307.727 306.774 306.91 307.121 306.3 307.814C305.704 308.507 305.399 309.366 305.399 310.378C305.399 311.418 305.704 312.277 306.314 312.956C306.937 313.636 307.741 313.982 308.739 313.982C310.181 313.982 311.234 313.331 311.913 312.028L310.985 311.543C310.486 312.471 309.737 312.929 308.739 312.929C307.506 312.929 306.66 312.014 306.591 310.628H312.052V310.143ZM308.739 307.828C309.862 307.828 310.61 308.465 310.818 309.574H306.674C306.91 308.479 307.644 307.828 308.739 307.828Z" fill="white"/>
<path d="M470.351 310.683C469.907 312.125 469.228 312.818 468.022 312.818C466.304 312.818 465.278 311.584 465.278 309.02C465.278 306.455 466.304 305.222 468.022 305.222C469.228 305.222 469.907 305.915 470.351 307.356L471.501 307.01C471.058 305.222 469.838 304.057 468.022 304.057C466.858 304.057 465.902 304.487 465.139 305.333C464.391 306.178 464.017 307.412 464.017 309.02C464.017 310.628 464.391 311.861 465.139 312.707C465.902 313.552 466.858 313.982 468.022 313.982C469.838 313.982 471.058 312.818 471.501 311.03L470.351 310.683ZM473.361 311.75C473.361 313.137 474.067 313.982 475.495 313.982C476.451 313.982 477.352 313.414 477.865 312.582V313.871H479.03V306.885H477.865V309.699C477.865 310.683 477.671 311.459 477.269 312.055C476.867 312.638 476.382 312.929 475.814 312.929C474.955 312.929 474.525 312.457 474.525 311.501V306.885H473.361V311.75ZM484.796 306.774C484.131 306.774 483.563 306.954 483.106 307.329C482.648 307.703 482.412 308.188 482.412 308.798C482.412 310.032 483.244 310.531 484.672 310.822C485.947 311.099 486.474 311.293 486.474 311.847C486.474 312.554 485.836 312.929 484.991 312.929C484.048 312.929 483.383 312.416 483.064 311.543L481.955 311.958C482.385 313.247 483.549 313.982 484.991 313.982C485.753 313.982 486.39 313.788 486.903 313.386C487.416 312.984 487.679 312.43 487.679 311.737C487.679 311.002 487.25 310.531 486.598 310.253C486.141 310.045 485.767 309.962 485.171 309.838C484.062 309.616 483.549 309.325 483.549 308.756C483.549 308.133 484.09 307.828 484.755 307.828C485.462 307.828 486.03 308.202 486.432 308.937L487.347 308.285C486.792 307.273 485.947 306.774 484.796 306.774ZM491.895 307.939V311.556C491.895 313.164 492.727 313.982 494.265 313.982C495.097 313.982 495.818 313.677 496.414 313.081L495.984 312.097C495.457 312.651 494.889 312.929 494.265 312.929C493.461 312.929 493.059 312.457 493.059 311.515V307.939H496.469V306.885H493.059V304.057L491.895 304.792V306.885H490.038V307.939H491.895ZM499.52 312.929C500.144 313.636 500.976 313.982 502.015 313.982C503.055 313.982 503.886 313.636 504.51 312.929C505.134 312.222 505.453 311.376 505.453 310.378C505.453 309.38 505.134 308.535 504.51 307.828C503.886 307.121 503.055 306.774 502.015 306.774C500.976 306.774 500.144 307.121 499.52 307.828C498.897 308.535 498.578 309.38 498.578 310.378C498.578 311.376 498.897 312.222 499.52 312.929ZM500.38 308.576C500.782 308.077 501.336 307.828 502.015 307.828C502.694 307.828 503.249 308.077 503.651 308.576C504.053 309.075 504.261 309.671 504.261 310.378C504.261 311.085 504.053 311.681 503.651 312.18C503.249 312.679 502.694 312.929 502.015 312.929C501.336 312.929 500.782 312.679 500.38 312.18C499.978 311.681 499.77 311.085 499.77 310.378C499.77 309.671 499.978 309.075 500.38 308.576ZM514.463 308.659C514.463 307.384 513.867 306.774 512.938 306.774C512.218 306.774 511.594 307.232 511.22 307.911C511.012 307.148 510.527 306.774 509.778 306.774C509.099 306.774 508.558 307.107 508.143 307.772V306.885H506.978V313.871H508.143V310.586C508.143 308.743 508.655 307.842 509.376 307.842C509.917 307.842 510.138 308.146 510.138 308.909V313.871H511.303V310.586C511.303 308.743 511.816 307.842 512.536 307.842C513.077 307.842 513.299 308.146 513.299 308.909V313.871H514.463V308.659Z" fill="white"/>
<path d="M436.606 303.97V351.495" stroke="#545454" stroke-width="2" stroke-dasharray="4 4"/>
<path d="M234.639 303.97V351.495" stroke="#545454" stroke-width="2" stroke-dasharray="4 4"/>
<path d="M84.1532 101C102.197 101 116.824 86.3717 116.824 68.3267C116.824 50.2818 102.197 35.6534 84.1532 35.6534C66.1093 35.6534 51.4819 50.2818 51.4819 68.3267C51.4819 86.3717 66.1093 101 84.1532 101Z" fill="#2F2F2F"/>
<path d="M96.0105 69.3042C96.0105 68.6735 95.9461 68.1691 95.8819 67.9168C95.6245 65.8988 95.0458 64.5744 94.7886 64.1329C94.7242 64.0068 94.6598 63.8808 94.5956 63.6916L94.5312 63.6285H94.467C94.4026 63.6285 94.274 63.6285 94.0811 63.6285C92.6662 63.7546 91.5729 64.0699 90.8655 64.3221C90.7369 64.3852 90.6726 64.3852 90.544 64.4483C90.544 64.3852 90.544 64.2591 90.4796 64.196C90.2224 62.4303 89.7079 61.0428 89.4507 60.4123C89.1935 59.7185 88.8075 59.0879 88.486 58.4572C88.4217 58.3942 87.3284 56.5653 85.6563 55.0519C85.3347 54.7996 84.7559 54.232 83.7912 53.6014C83.727 53.5383 83.6626 53.5383 83.6626 53.5383L83.5984 53.4752L83.534 53.5383C83.534 53.5383 83.4697 53.6014 83.4054 53.6014C81.2832 55.0519 80.0612 56.6915 79.4824 57.5113C79.0966 58.0158 78.1961 59.4663 77.4887 61.2321C76.9742 62.5564 76.7814 63.6285 76.717 64.1329C76.717 64.196 76.717 64.3221 76.6527 64.3852C76.6527 64.3852 76.3311 64.2591 75.7523 64.0699C75.7523 64.0699 75.6881 64.0699 75.5594 64.0068C74.852 63.8177 73.8873 63.6285 72.6654 63.5023C72.6654 63.5023 72.6654 63.5023 72.3438 64.3221C72.2152 64.5114 72.1508 64.7636 72.0866 65.0158C71.4435 66.7186 71.1863 68.4843 71.3149 70.3132C71.3791 71.4484 71.5721 72.5205 71.958 73.5295C72.8583 76.3673 74.5304 78.7637 76.8456 80.5925C77.2958 80.971 78.1319 81.6016 79.3538 82.1692C81.2188 83.0521 82.9552 83.1782 83.7912 83.1782C83.8556 83.1782 83.9199 83.1782 83.9842 83.1782C83.9842 83.1782 86.428 83.1151 88.7433 81.8538C89.0648 81.6646 89.4507 81.4755 89.4507 81.4755C90.0294 81.0971 90.4796 80.7187 90.7369 80.5295C91.9588 79.5205 93.0521 78.3222 93.8881 76.9349C95.0458 75.106 95.5603 73.4033 95.7531 72.5205C96.0105 71.0069 96.0747 69.8717 96.0105 69.3042ZM83.727 77.3132C83.727 78.5745 83.4697 79.8989 83.0838 81.1602C81.5404 80.8448 78.6464 80.025 76.4598 77.6286C74.852 75.8628 74.1446 73.9078 73.8873 73.2772C73.3729 71.8898 73.1799 70.4394 73.2442 68.9889C73.2442 68.6105 73.3729 67.3492 73.8873 65.7726V65.7096C73.9516 65.7096 73.9516 65.7096 74.0159 65.7096C75.2379 65.8988 76.0096 66.214 76.3311 66.3402C76.3311 66.3402 76.4598 66.4032 76.524 66.4032C77.8103 66.9078 78.9036 67.8537 79.2252 68.106C81.0902 69.6195 81.9905 71.2592 82.3121 71.8898C82.5051 72.2682 82.6337 72.5835 82.6979 72.8357C83.0195 73.7187 83.4054 74.5385 83.534 75.4844C83.727 76.3042 83.727 76.9349 83.727 77.3132ZM83.6626 70.2502C83.2124 69.4933 82.6979 68.7997 82.1191 68.106C81.8619 67.8537 81.5404 67.4122 81.0258 66.9709C80.8329 66.7817 80.3827 66.4032 79.8039 65.9619C79.4181 65.7096 79.0322 65.4573 78.6464 65.205C78.7106 64.5744 78.8392 64.0068 78.9679 63.3762C79.4824 61.3582 80.3185 59.7816 80.8972 58.8987C81.2188 58.4572 81.7976 57.5743 82.7623 56.6284C83.0838 56.313 83.341 56.0609 83.6626 55.8086C85.1418 56.9437 86.2994 58.3312 87.1355 59.8446C87.3927 60.3492 87.9715 61.4213 88.3574 62.8717C88.5503 63.6285 88.6789 64.4483 88.8075 65.205C87.65 65.8357 86.6853 66.6555 85.785 67.5384C85.1418 68.1691 84.3701 69.052 83.6626 70.2502ZM92.3446 75.6106C91.7659 76.5565 91.0585 77.4394 90.2868 78.1331C88.8719 79.4574 87.1355 80.4034 85.2061 80.9079C85.4634 80.1512 85.592 79.3943 85.6563 78.5745C85.7206 78.0701 85.7206 77.1871 85.6563 76.1781C85.5276 74.9169 85.2704 73.6556 84.7559 72.4574C85.1418 71.5745 85.6562 70.7546 86.2351 69.9979C87.0711 68.9889 87.8428 68.2952 88.2288 67.9799C89.0005 67.3492 89.9008 66.8447 90.8012 66.4663C91.6373 66.088 92.5376 65.8357 93.4379 65.7096C93.5665 66.214 93.6953 66.6555 93.8239 67.1601C94.0168 68.2952 94.0811 69.1781 94.1454 69.2412C94.1454 70.061 94.0168 72.8357 92.3446 75.6106Z" fill="white"/>
<path d="M89.992 233.463L112.324 209.911H106.029L88.7703 232.029L69.9496 209.911H64.0729H61.1655H60.3923L83.3267 236.806L66.439 255.092L60.3923 261.396H66.6864L84.9196 238.668L104.312 261.396H105.179H111.967H113.854L89.992 233.463Z" fill="url(#paint3_radial)"/>
</g>
<defs>
<radialGradient id="paint0_radial" cx="0" cy="0" r="1" gradientUnits="userSpaceOnUse" gradientTransform="translate(795 197.04) rotate(179.713) scale(791.05 1588.19)">
<stop stop-color="#EB9038"/>
<stop offset="0.463542" stop-color="#8DC4F3"/>
<stop offset="1" stop-color="#F3C3CF"/>
</radialGradient>
<radialGradient id="paint1_radial" cx="0" cy="0" r="1" gradientUnits="userSpaceOnUse" gradientTransform="translate(191.692 153.404) rotate(90) scale(27.8733 132.765)">
<stop stop-color="#EB9038"/>
<stop offset="0.505208" stop-color="#F3C3CF"/>
<stop offset="1" stop-color="#8DC4F3"/>
</radialGradient>
<radialGradient id="paint2_radial" cx="0" cy="0" r="1" gradientUnits="userSpaceOnUse" gradientTransform="translate(200.294 233.166) rotate(90) scale(29.2277 68.7549)">
<stop stop-color="#EB9038"/>
<stop offset="0.515625" stop-color="#F3C3CF"/>
<stop offset="1" stop-color="#8DC4F3"/>
</radialGradient>
<radialGradient id="paint3_radial" cx="0" cy="0" r="1" gradientUnits="userSpaceOnUse" gradientTransform="translate(87.1233 209.911) rotate(90) scale(51.4852 53.462)">
<stop stop-color="#EB9038"/>
<stop offset="0.515625" stop-color="#F3C3CF"/>
<stop offset="1" stop-color="#8DC4F3"/>
</radialGradient>
</defs>
</svg>
