<svg width="240" height="27" viewBox="0 0 240 27" fill="none" xmlns="http://www.w3.org/2000/svg">
<g clip-path="url(#clip0)">
<path d="M16.9657 8.87213V6.80816C16.9254 6.56853 16.9254 6.32775 16.9657 6.08812C17.0324 5.90937 17.1722 5.73829 17.3776 5.58414C17.6323 5.41162 18.0196 5.29136 18.4593 5.24818C19.1089 5.20899 19.7666 5.20899 20.4162 5.24818H24.8455V1.12017H17.7382C16.1386 1.0481 14.5244 1.13252 12.9989 1.3681C11.4735 1.60367 10.0704 1.98516 8.87978 2.48812C6.93239 3.61844 5.97561 5.05045 6.20173 6.49615V8.89615H1.05151V13.0242H6.20173V25.0242H16.8627V13.0242H23.9699L24.897 8.89615H16.8627L16.9657 8.87213Z" fill="white"/>
</g>
<g clip-path="url(#clip1)">
<path d="M93 1C89.8174 1 86.7652 2.26431 84.5147 4.51475C82.2643 6.76518 81 9.8174 81 13C80.9986 15.4158 81.7263 17.7758 83.088 19.7712C84.4497 21.7667 86.3819 23.3047 88.632 24.184C88.4603 23.0465 88.4603 21.8896 88.632 20.752L90.048 14.7761C89.8045 14.2159 89.6818 13.6107 89.688 13C89.5981 12.3299 89.7737 11.6511 90.1772 11.1086C90.5808 10.5661 91.1803 10.2027 91.848 10.096C92.0615 10.0947 92.2729 10.1386 92.4682 10.2249C92.6635 10.3111 92.8384 10.4378 92.9813 10.5965C93.1241 10.7552 93.2316 10.9424 93.2969 11.1457C93.3622 11.349 93.3837 11.5638 93.36 11.7761C93.1455 13.1295 92.8163 14.4623 92.376 15.76C92.3126 16.0235 92.3113 16.2981 92.3721 16.5623C92.4329 16.8264 92.554 17.0729 92.7262 17.2823C92.8983 17.4916 93.1167 17.6581 93.3641 17.7688C93.6115 17.8795 93.8812 17.9313 94.152 17.92C96.288 17.92 97.92 15.664 97.92 12.424C97.9206 11.7751 97.7897 11.1327 97.5351 10.5358C97.2805 9.93894 96.9075 9.39984 96.4387 8.95117C95.9698 8.50251 95.4148 8.1536 94.8073 7.92549C94.1997 7.69738 93.5523 7.59482 92.904 7.62402C92.2013 7.59144 91.4993 7.70225 90.8407 7.94966C90.1822 8.19707 89.5809 8.57586 89.0735 9.06309C88.5661 9.55031 88.1631 10.1357 87.8892 10.7837C87.6152 11.4316 87.4759 12.1285 87.48 12.832C87.4893 13.8133 87.7993 14.7682 88.368 15.568C88.3953 15.6198 88.4096 15.6775 88.4096 15.736C88.4096 15.7946 88.3953 15.8523 88.368 15.9041L88.032 17.272C88.032 17.488 87.864 17.536 87.624 17.44C86.8602 16.933 86.2386 16.239 85.8185 15.4241C85.3985 14.6092 85.1939 13.7003 85.224 12.784C85.219 11.7747 85.4261 10.7757 85.8321 9.85168C86.2381 8.92766 86.8339 8.09926 87.5807 7.42034C88.3275 6.74142 89.2087 6.2271 90.1671 5.91074C91.1256 5.59439 92.1398 5.48307 93.144 5.58401C94.0893 5.53548 95.0346 5.67826 95.9233 6.00383C96.8121 6.32941 97.626 6.83106 98.3162 7.47871C99.0064 8.12637 99.5588 8.9067 99.9403 9.77295C100.322 10.6392 100.524 11.5736 100.536 12.52C100.628 13.4202 100.54 14.3297 100.276 15.1952C100.012 16.0607 99.5777 16.8647 98.9986 17.5601C98.4196 18.2554 97.7074 18.828 96.904 19.2443C96.1005 19.6605 95.222 19.912 94.32 19.984C93.7822 20.0051 93.2478 19.891 92.7656 19.652C92.2834 19.413 91.8688 19.0567 91.56 18.616L90.816 21.472C90.4585 22.5801 89.9583 23.637 89.328 24.616C90.4788 24.9692 91.6762 25.1472 92.88 25.144C96.0626 25.144 99.1148 23.8798 101.365 21.6293C103.616 19.3789 104.88 16.3266 104.88 13.144C104.899 11.5661 104.607 9.99998 104.02 8.53523C103.433 7.07048 102.562 5.73592 101.459 4.60791C100.355 3.4799 99.0403 2.58061 97.5888 1.96152C96.1373 1.34243 94.5779 1.01567 93 1Z" fill="white"/>
</g>
<g clip-path="url(#clip2)">
<path d="M53 3.15999C56.216 3.15999 56.576 3.15999 57.8 3.15999C58.5619 3.16708 59.3169 3.30512 60.032 3.56802C60.5481 3.75918 61.0153 4.06246 61.4 4.45601C61.7936 4.84071 62.0969 5.30795 62.288 5.82402C62.5509 6.53915 62.689 7.29412 62.696 8.05601C62.696 9.32801 62.696 9.71201 62.696 12.856C62.696 16 62.696 16.432 62.696 17.656C62.689 18.4179 62.5509 19.1729 62.288 19.888C62.0969 20.4041 61.7936 20.8713 61.4 21.256C61.0153 21.6496 60.5481 21.9528 60.032 22.144C59.3169 22.4069 58.5619 22.5449 57.8 22.552C56.528 22.552 56.144 22.552 53 22.552C49.856 22.552 49.424 22.552 48.2 22.552C47.4381 22.5449 46.6832 22.4069 45.968 22.144C45.452 21.9528 44.9847 21.6496 44.6 21.256C44.2065 20.8713 43.9032 20.4041 43.712 19.888C43.4491 19.1729 43.3111 18.4179 43.304 17.656C43.304 16.384 43.304 16 43.304 12.856C43.304 9.71201 43.304 9.28001 43.304 8.05601C43.3111 7.29412 43.4491 6.53915 43.712 5.82402C43.9032 5.30795 44.2065 4.84071 44.6 4.45601C44.9847 4.06246 45.452 3.75918 45.968 3.56802C46.6832 3.30512 47.4381 3.16708 48.2 3.15999C49.472 3.15999 49.856 3.15999 53 3.15999ZM53 1C49.736 1 49.328 1 48.056 1C47.0638 1.01909 46.082 1.20575 45.1521 1.55203C44.3468 1.85422 43.6176 2.32936 43.016 2.94399C42.4014 3.54562 41.9262 4.27479 41.624 5.08003C41.2778 6.01002 41.0911 6.99182 41.072 7.98401C41.072 9.25601 41.072 9.664 41.072 12.928C41.072 16.192 41.072 16.6 41.072 17.872C41.0911 18.8642 41.2778 19.8461 41.624 20.7761C41.9262 21.5813 42.4014 22.3104 43.016 22.912C43.6176 23.5266 44.3468 24.0019 45.1521 24.3041C46.082 24.6503 47.0638 24.8369 48.056 24.856C49.328 24.856 49.736 24.856 53 24.856C56.264 24.856 56.672 24.856 57.944 24.856C58.9362 24.8369 59.9181 24.6503 60.8481 24.3041C61.6533 24.0019 62.3824 23.5266 62.984 22.912C63.5987 22.3104 64.0739 21.5813 64.3761 20.7761C64.7224 19.8461 64.9089 18.8642 64.928 17.872C64.928 16.6 64.928 16.192 64.928 12.928C64.928 9.664 64.928 9.25601 64.928 7.98401C64.9089 6.99182 64.7224 6.01002 64.3761 5.08003C64.0739 4.27479 63.5987 3.54562 62.984 2.94399C62.3824 2.32936 61.6533 1.85422 60.8481 1.55203C59.9181 1.20575 58.9362 1.01909 57.944 1C56.672 1 56.264 1 53 1Z" fill="white"/>
<path d="M52.9999 6.85596C51.3641 6.85596 49.7952 7.50582 48.6385 8.66255C47.4818 9.81927 46.8319 11.3881 46.8319 13.024C46.8319 14.6598 47.4818 16.2287 48.6385 17.3854C49.7952 18.5421 51.3641 19.192 52.9999 19.192C54.6358 19.192 56.2046 18.5421 57.3614 17.3854C58.5181 16.2287 59.1679 14.6598 59.1679 13.024C59.1679 11.3881 58.5181 9.81927 57.3614 8.66255C56.2046 7.50582 54.6358 6.85596 52.9999 6.85596ZM52.9999 17.008C51.9369 17.008 50.9175 16.5857 50.1659 15.8341C49.4142 15.0824 48.992 14.0629 48.992 13C48.992 11.937 49.4142 10.9176 50.1659 10.1659C50.9175 9.41427 51.9369 8.99199 52.9999 8.99199C54.0629 8.99199 55.0824 9.41427 55.834 10.1659C56.5857 10.9176 57.008 11.937 57.008 13C57.008 14.0629 56.5857 15.0824 55.834 15.8341C55.0824 16.5857 54.0629 17.008 52.9999 17.008Z" fill="white"/>
<path d="M59.408 8.03186C60.2033 8.03186 60.848 7.38715 60.848 6.59186C60.848 5.79657 60.2033 5.15186 59.408 5.15186C58.6127 5.15186 57.968 5.79657 57.968 6.59186C57.968 7.38715 58.6127 8.03186 59.408 8.03186Z" fill="white"/>
</g>
<g clip-path="url(#clip3)">
<path d="M145 3.83412C144.1 4.32133 143.145 4.63978 142.168 4.77879C143.196 4.01679 143.964 2.82065 144.328 1.41352C143.364 2.12028 142.309 2.61945 141.208 2.88954C140.752 2.27587 140.195 1.78771 139.575 1.45704C138.954 1.12636 138.284 0.960572 137.608 0.970648C136.303 0.970648 135.052 1.60824 134.129 2.74315C133.206 3.87805 132.688 5.41736 132.688 7.02236C132.685 7.48898 132.725 7.95453 132.808 8.40982C130.85 8.29194 128.934 7.66852 127.185 6.58012C125.436 5.49171 123.893 3.96266 122.656 2.09243C122.225 2.9865 121.993 4.00484 121.984 5.04446C121.981 6.04212 122.18 7.02506 122.561 7.90577C122.942 8.78649 123.494 9.53771 124.168 10.0925C123.384 10.0647 122.618 9.80119 121.936 9.32494C121.942 10.7196 122.339 12.069 123.061 13.1448C123.782 14.2206 124.784 14.9569 125.896 15.229C125.473 15.3681 125.037 15.4376 124.6 15.4357C124.289 15.4723 123.975 15.4723 123.664 15.4357C123.98 16.6389 124.594 17.6903 125.42 18.4421C126.247 19.1939 127.244 19.6085 128.272 19.6275C126.527 21.3136 124.371 22.2286 122.152 22.2253H120.976C123.225 23.9999 125.84 24.9426 128.512 24.9412C130.356 24.9569 132.184 24.5217 133.891 23.6609C135.597 22.8 137.147 21.5308 138.451 19.9268C139.755 18.3228 140.787 16.4159 141.487 14.3172C142.187 12.2185 142.541 9.96971 142.528 7.70136C142.528 7.44552 142.528 7.17978 142.528 6.90426C143.493 6.06816 144.33 5.02876 145 3.83412Z" fill="white"/>
</g>
<defs>
<clipPath id="clip0">
<rect width="24" height="24" fill="white" transform="translate(1 1)"/>
</clipPath>
<clipPath id="clip1">
<rect width="24" height="24" fill="white" transform="translate(81 1)"/>
</clipPath>
<clipPath id="clip2">
<rect width="24" height="24" fill="white" transform="translate(41 1)"/>
</clipPath>
<clipPath id="clip3">
<rect width="24" height="24" fill="white" transform="translate(121 1)"/>
</clipPath>
</defs>
</svg>
