<svg width="227" height="368" viewBox="0 0 227 368" fill="none" xmlns="http://www.w3.org/2000/svg">
<g filter="url(#filter0_d)">
<path d="M63.3333 8.83341C63.3333 8.66675 63.3333 8.66675 63.3333 8.50008C63.3333 8.33341 63.3333 8.33341 63.3333 8.16675C63.3333 8.00008 63.1666 8.00008 63.1666 7.83341C63.1666 7.66675 63 7.66675 63 7.50008C63 7.50008 62.8333 7.33341 62.6666 7.33341C62.5 7.33341 62.5 7.16675 62.3333 7.16675C62.1666 7.16675 62.1666 7.16675 62 7.16675C61.8333 7.16675 61.8333 7.16675 61.6666 7.16675H18.3333C18.1666 7.16675 18.1666 7.16675 18 7.16675C17.8333 7.16675 17.8333 7.16675 17.6666 7.16675C17.5 7.16675 17.5 7.33341 17.3333 7.33341C17.1666 7.33341 17.1666 7.50008 17 7.50008C17 7.50008 16.8333 7.66675 16.8333 7.83341C16.8333 8.00008 16.6666 8.00008 16.6666 8.16675C16.6666 8.33341 16.6666 8.33341 16.6666 8.50008C16.6666 8.66675 16.6666 8.66675 16.6666 8.83341L19.6666 66.5001C19.6666 66.6668 19.6666 66.6668 19.6666 66.8334C19.6666 67.0001 19.6666 67.0001 19.6666 67.1668C19.6666 67.3334 19.8333 67.3334 19.8333 67.5001L20 67.6668C20.1666 67.8334 20.1666 67.8334 20.3333 67.8334V73.3334C20.3333 74.3334 21 75.0001 22 75.0001H30.5C31.5 75.0001 32.1666 74.3334 32.1666 73.3334V67.8334C32.3333 67.8334 32.3333 67.6668 32.5 67.6668L32.6666 67.5001C32.6666 67.3334 32.8333 67.3334 32.8333 67.1668C32.8333 67.1668 32.8333 67.0001 33 67.0001V66.8334L39.1666 34.6668H40.3333L46.5 66.8334C46.5 67.0001 46.6666 67.1668 46.6666 67.3334C46.6666 67.3334 46.6666 67.3334 46.6666 67.5001C46.6666 67.6668 46.8333 67.6668 47 67.8334C47 67.8334 47.1666 67.8334 47.1666 68.0001V73.5001C47.1666 74.5001 47.8333 75.1668 48.8333 75.1668H57.3333C58.3333 75.1668 59 74.5001 59 73.5001V68.0001C59.1666 68.0001 59.1666 67.8334 59.3333 67.8334L59.5 67.6668C59.5 67.5001 59.6666 67.5001 59.6666 67.3334C59.6666 67.1668 59.6666 67.1668 59.6666 67.0001C59.6666 66.8334 59.6666 66.8334 59.6666 66.6668L63.3333 8.83341ZM29 71.8334H23.8333V68.1668H29V71.8334ZM56.1666 71.8334H51V68.1668H56.1666V71.8334ZM57 64.8334H49.8333L43.6666 32.6668V32.5001C43.6666 32.3334 43.6666 32.3334 43.5 32.1668C43.5 32.0001 43.3333 32.0001 43.3333 31.8334C43.3333 31.6668 43.1666 31.6668 43.1666 31.6668C43 31.6668 43 31.5001 42.8333 31.5001C42.6666 31.5001 42.6666 31.3334 42.5 31.3334C42.3333 31.3334 42.3333 31.3334 42.1666 31.3334H42H38.1666H38C37.8333 31.3334 37.8333 31.3334 37.6666 31.3334C37.5 31.3334 37.5 31.3334 37.3333 31.5001C37.1666 31.5001 37.1666 31.6668 37 31.6668L36.8333 31.8334C36.8333 31.8334 36.6666 32.0001 36.6666 32.1668C36.6666 32.3334 36.5 32.3334 36.5 32.5001V32.6668L30.3333 64.8334H23.1666L20.6666 19.5001H59.6666L57 64.8334ZM59.6666 16.1668H20.3333L20 10.5001H60L59.6666 16.1668Z" fill="url(#paint0_radial)"/>
<path d="M217 51.6667L207 41.8334C207.167 38.6667 207.5 27 201.167 20C197.833 16.3334 193.333 14.5 187.833 14.5H180C174.333 14.5 170 16.3334 166.667 20C160.333 27.1667 160.833 38.6667 161 41.8334L151.167 51.8334C151 52 150.833 52.1667 150.833 52.3334C150.833 52.5 150.667 52.8334 150.667 53C150.667 61 168 65.3334 184.167 65.3334C200.333 65.3334 217.5 60.8334 217.5 52.8334C217.5 52.5 217.333 52 217 51.6667ZM169.167 22.3334C171.833 19.3334 175.333 18 180 17.8334H187.833C192.5 17.8334 196 19.3334 198.667 22.1667C205 29.1667 203.667 42.1667 203.667 42.1667C203.667 42.1667 203.667 42.1667 203.667 42.3334C203.667 42.3334 203.667 42.3334 203.667 42.5C203.667 44.8334 196 48.3334 184.167 48.3334C172.167 48.3334 164.5 45 164.5 42.6667C164.5 42.6667 164.5 42.6667 164.5 42.5C164.5 42.5 164.5 42.5 164.5 42.3334C164.333 42.3334 163 29.3334 169.167 22.3334ZM184.167 62.1667C166.5 62.3334 155.167 57.5 154.167 53.8334L162.333 45.6667C165.333 49.6667 174.667 51.6667 184 51.6667C193.333 51.6667 202.667 49.5 205.833 45.3334L214 53.5C213 57.1667 201.833 62 184.167 62.1667Z" fill="url(#paint1_radial)"/>
<path d="M66.0018 195.5C65.8351 195.167 65.6684 195 65.5018 194.833C65.3351 194.667 65.3351 194.5 65.1685 194.5L49.8351 179.167V150.833C49.8351 149.833 49.1685 149.167 48.1685 149.167H28.3351C27.3351 149.167 26.6685 149.833 26.6685 150.833V155H17.3351C16.3351 155 15.6685 155.667 15.6685 156.667V164.167V184.5V191.167C15.6685 193.333 16.5018 195.5 18.1685 197L21.6685 200.5L37.8351 216.667C38.0018 216.833 38.1685 216.833 38.1685 217C38.3351 217.333 38.5018 217.5 38.8351 217.5C40.3351 218.5 42.0018 219 43.6685 219C45.8351 219 48.0018 218.167 49.5018 216.5L53.0018 213C53.5018 213.167 54.1684 213.167 54.6684 213.167C56.8351 213.167 58.8351 212.333 60.5018 210.667L65.1685 206C66.6685 204.5 67.6685 202.333 67.6685 200.167C67.6685 198.5 67.0018 197 66.0018 195.5ZM30.0018 152.333H46.5018V156.5H38.8351C38.8351 155.5 38.1684 154.833 37.1684 154.833H30.0018V152.333ZM19.0018 158.167H35.5018V162.333H19.0018V158.167ZM24.5018 190.333L22.1684 196.333L20.5018 194.667C19.5018 193.667 19.0018 192.5 19.0018 191.167V186.667L23.5018 188.167C24.0018 188.333 24.3351 188.667 24.5018 189C24.6685 189.333 24.6685 189.833 24.5018 190.333ZM38.3351 212.5L24.8351 199L27.6685 191.667C28.1685 190.333 28.1685 189 27.5018 187.833C27.0018 186.667 25.8351 185.667 24.6684 185.167L19.1685 183.333V165.667H35.6685V185.5C35.6685 186 35.8351 186.333 36.1685 186.667L50.1685 200.667C44.1685 202.167 39.6685 206.667 38.3351 212.5ZM51.8351 209.667L51.5018 210L47.3351 214.167C45.6685 215.833 43.1684 216 41.3351 215C41.8351 208.833 46.6685 204 52.6685 203.667C53.6685 205.667 53.5018 208.167 51.8351 209.667ZM53.1685 199.167L38.8351 184.833V159.833H46.5018V179.667C46.5018 180.167 46.6685 180.5 47.0018 180.833L60.8351 194.667C57.8351 195.5 55.1685 197 53.1685 199.167ZM62.8351 203.833L58.1685 208.5C57.5018 209.167 56.5018 209.667 55.6685 210C57.0018 207.5 56.8351 204.333 55.3351 202C57.3351 199.5 60.1685 198.333 63.5018 198C64.0018 198.667 64.1685 199.667 64.1685 200.5C64.3351 201.667 63.8351 203 62.8351 203.833Z" fill="url(#paint2_radial)"/>
<path d="M221.332 191.667C221.498 191.167 225.498 178.333 219.165 168.5C215.332 162.667 208.665 159.167 199.165 158.333C198.665 158.333 185.165 156.833 175.332 164.833C169.832 169.333 166.665 175.667 165.665 184L148.165 192.167C147.998 192.167 147.998 192.333 147.832 192.333L147.665 192.5L147.498 192.667C147.498 192.833 147.332 192.833 147.332 193C146.498 195.667 146.832 197.667 148.165 198.667C148.832 199.167 149.665 199.5 150.665 199.5C153.665 199.5 157.665 197.333 160.165 196C163.332 197.5 166.998 199.667 171.332 202.5L174.332 204.333C176.665 205.833 179.332 206.333 181.998 206.333C192.498 206.333 203.832 197.167 206.332 194.833C207.665 195 208.832 195 209.832 195C216.665 195 220.165 192.5 220.665 192.167C220.832 192 220.832 192 220.998 191.833C220.998 191.833 220.998 191.667 221.165 191.667C221.165 191.833 221.332 191.833 221.332 191.667ZM150.165 196.333C150.165 196.333 149.998 196 150.165 195C151.998 194.333 153.832 194.333 155.832 194.667C152.998 196 150.665 196.667 150.165 196.333ZM175.998 201.667L172.998 199.833C168.332 196.833 164.165 194.333 160.498 192.833H160.332C159.332 192.333 158.165 192 157.165 191.833L167.332 187C173.998 187.333 183.165 189.667 191.998 192C195.498 192.833 198.832 193.667 201.832 194.5C196.665 198.5 184.165 206.667 175.998 201.667ZM202.998 191.167C199.832 190.5 196.498 189.5 192.998 188.667C184.498 186.5 175.832 184.333 168.998 183.667C169.998 176.667 172.832 171.167 177.332 167.5C186.165 160.333 198.498 161.667 198.665 161.833C206.998 162.667 212.832 165.5 216.165 170.5C220.998 177.833 218.832 187.833 218.165 190.333C216.832 190.833 211.832 193.167 202.998 191.167Z" fill="url(#paint3_radial)"/>
<path d="M64.8346 335.167V321.667C64.8346 309.667 55.0013 299.833 43.1679 299.833H37.0013C25.0013 299.833 15.1679 309.667 15.1679 321.667V335.167C12.5013 336.5 10.8346 339.333 10.8346 342.5V347.833C10.8346 352.5 14.5013 356.167 19.1679 356.167H61.0013C65.6679 356.167 69.3346 352.5 69.3346 347.833V342.5C69.1679 339.333 67.5013 336.5 64.8346 335.167ZM18.5013 334.167V321.667C18.5013 311.5 26.8346 303.167 37.0013 303.167H43.1679C53.3346 303.167 61.6679 311.5 61.6679 321.667V334.167H61.0013H19.1679H18.5013ZM65.8346 347.833C65.8346 350.667 63.6679 352.833 60.8346 352.833H19.1679C16.3346 352.833 14.1679 350.667 14.1679 347.833V342.5C14.1679 339.667 16.3346 337.5 19.1679 337.5H61.0013C63.8346 337.5 66.0013 339.667 66.0013 342.5V347.833H65.8346Z" fill="url(#paint4_radial)"/>
<path d="M219.832 313C219.832 312.167 219.165 311.5 218.499 311.333L196.332 300.167V295C196.165 291 190.832 288 183.999 288C177.165 288 171.832 291 171.832 295V300.167L149.665 311.5C148.832 311.667 148.332 312.333 148.332 313.167V357.833C148.332 357.833 148.332 357.833 148.332 358C148.332 358 148.332 358 148.332 358.167C148.332 359.167 148.999 359.833 149.999 359.833H160.665C161.665 359.833 162.332 359.167 162.332 358.167V350.667C163.665 349.667 171.165 348 184.165 348C197.165 348 204.499 349.667 205.999 350.667V358.167C205.999 359.167 206.665 359.833 207.665 359.833H218.332C219.332 359.833 219.999 359.167 219.999 358.167C219.999 358.167 219.999 358.167 219.999 358C219.999 358 219.999 358 219.999 357.833V313H219.832ZM174.999 295C174.999 293.5 178.499 291.333 183.999 291.333C189.499 291.333 192.999 293.5 192.999 295V300.333L183.999 307L174.999 300.333V295ZM216.499 356.167H209.165V350C209.165 350 209.165 350 209.165 349.833V321C209.165 320 208.499 319.333 207.499 319.333C206.499 319.333 205.832 320 205.832 321V346.833C204.499 346.333 202.999 346 200.999 345.667C196.499 344.833 190.499 344.5 184.165 344.5C177.832 344.5 171.832 345 167.332 345.667C165.332 346 163.665 346.333 162.499 346.833V321C162.499 320 161.832 319.333 160.832 319.333C159.832 319.333 159.165 320 159.165 321V350C159.165 350 159.165 350 159.165 350.167V356.333H151.499V314.167L173.165 303.167L182.832 310.5C182.832 310.5 182.999 310.5 182.999 310.667C182.999 310.667 183.165 310.667 183.165 310.833C183.332 311 183.665 311 183.832 311C183.999 311 184.332 311 184.499 310.833C184.499 310.833 184.665 310.833 184.665 310.667C184.665 310.667 184.832 310.667 184.832 310.5L194.499 303.167L216.165 314.167V356.167H216.499Z" fill="url(#paint5_radial)"/>
</g>
<defs>
<filter id="filter0_d" x="-4" y="0" width="232" height="376" filterUnits="userSpaceOnUse" color-interpolation-filters="sRGB">
<feFlood flood-opacity="0" result="BackgroundImageFix"/>
<feColorMatrix in="SourceAlpha" type="matrix" values="0 0 0 0 0 0 0 0 0 0 0 0 0 0 0 0 0 0 127 0"/>
<feOffset dy="4"/>
<feGaussianBlur stdDeviation="2"/>
<feColorMatrix type="matrix" values="0 0 0 0 0 0 0 0 0 0 0 0 0 0 0 0 0 0 0.25 0"/>
<feBlend mode="normal" in2="BackgroundImageFix" result="effect1_dropShadow"/>
<feBlend mode="normal" in="SourceGraphic" in2="effect1_dropShadow" result="shape"/>
</filter>
<radialGradient id="paint0_radial" cx="0" cy="0" r="1" gradientUnits="userSpaceOnUse" gradientTransform="translate(40 7.16675) rotate(90) scale(68 46.6667)">
<stop stop-color="#EB9038"/>
<stop offset="0.515625" stop-color="#F3C3CF"/>
<stop offset="1" stop-color="#8DC4F3"/>
</radialGradient>
<radialGradient id="paint1_radial" cx="0" cy="0" r="1" gradientUnits="userSpaceOnUse" gradientTransform="translate(184.083 14.5) rotate(90) scale(50.8333 66.8333)">
<stop stop-color="#EB9038"/>
<stop offset="0.515625" stop-color="#F3C3CF"/>
<stop offset="1" stop-color="#8DC4F3"/>
</radialGradient>
<radialGradient id="paint2_radial" cx="0" cy="0" r="1" gradientUnits="userSpaceOnUse" gradientTransform="translate(41.6685 149.167) rotate(90) scale(69.8333 52)">
<stop stop-color="#EB9038"/>
<stop offset="0.515625" stop-color="#F3C3CF"/>
<stop offset="1" stop-color="#8DC4F3"/>
</radialGradient>
<radialGradient id="paint3_radial" cx="0" cy="0" r="1" gradientUnits="userSpaceOnUse" gradientTransform="translate(184.804 158.222) rotate(90) scale(48.1116 75.8529)">
<stop stop-color="#EB9038"/>
<stop offset="0.515625" stop-color="#F3C3CF"/>
<stop offset="1" stop-color="#8DC4F3"/>
</radialGradient>
<radialGradient id="paint4_radial" cx="0" cy="0" r="1" gradientUnits="userSpaceOnUse" gradientTransform="translate(40.0846 299.833) rotate(90) scale(56.3333 58.5)">
<stop stop-color="#EB9038"/>
<stop offset="0.515625" stop-color="#F3C3CF"/>
<stop offset="1" stop-color="#8DC4F3"/>
</radialGradient>
<radialGradient id="paint5_radial" cx="0" cy="0" r="1" gradientUnits="userSpaceOnUse" gradientTransform="translate(184.165 288) rotate(90) scale(71.8333 71.6667)">
<stop stop-color="#EB9038"/>
<stop offset="0.515625" stop-color="#F3C3CF"/>
<stop offset="1" stop-color="#8DC4F3"/>
</radialGradient>
</defs>
</svg>
