<svg width="224" height="370" viewBox="0 0 224 370" fill="none" xmlns="http://www.w3.org/2000/svg">
<path d="M62.5005 12.1667H36.0004C32.0004 12.1667 28.6671 15.5 28.6671 19.5V20.1667H26.6671C25.0005 17.8333 22.3338 16.5 19.3338 16.5C14.1671 16.5 10.1671 20.6667 10.1671 25.6667C10.1671 30.6667 14.3338 34.8333 19.3338 34.8333C22.3338 34.8333 25.0005 33.3333 26.6671 31.1667H28.6671V60.6667C28.6671 64.6667 32.0004 68 36.0004 68H62.5005C66.5005 68 69.8338 64.6667 69.8338 60.6667V19.5C69.8338 15.5 66.5005 12.1667 62.5005 12.1667ZM24.1671 29C23.1671 30.5 21.3338 31.5 19.3338 31.5C16.1671 31.5 13.5004 28.8333 13.5004 25.6667C13.5004 22.5 16.1671 19.8333 19.3338 19.8333C21.3338 19.8333 23.0005 20.8333 24.1671 22.3333V29ZM28.1671 27.8333C28.3338 27.1667 28.5004 26.5 28.5004 25.6667C28.5004 25 28.3338 24.1667 28.1671 23.5H31.5005L36.3338 24.8333V26.5L31.5005 27.8333H28.1671ZM66.5005 60.5C66.5005 62.6667 64.6671 64.5 62.5005 64.5H36.0004C33.8338 64.5 32.0005 62.6667 32.0005 60.5V31.1667H32.1671L38.3338 29.5C39.0005 29.3333 39.5005 28.6667 39.5005 27.8333V23.6667C39.5005 22.8333 39.0005 22.3333 38.3338 22L32.1671 20.3333H32.0005V19.6667C32.0005 17.5 33.8338 15.6667 36.0004 15.6667H62.5005C64.6671 15.6667 66.5005 17.5 66.5005 19.6667V60.5Z" fill="url(#paint0_radial)"/>
<path d="M50.1662 211.667L46.3329 167V159.833L47.1662 153.333C47.3329 152.333 46.9995 151.5 46.3329 150.667C45.6662 149.833 44.8329 149.5 43.8329 149.5H36.1662C35.1662 149.5 34.3329 149.833 33.6662 150.667C32.9996 151.5 32.6662 152.333 32.8329 153.333L33.6662 159.833V161.667V166.833L29.8329 211.833V215.5C29.8329 218.333 31.9996 220.5 34.8329 220.5H45.1662C47.9996 220.5 50.1662 218.333 50.1662 215.5V211.667ZM43.8329 152.833L43.1662 158.5C42.1662 158.167 41.1662 158.167 39.9996 158.167C38.9996 158.167 37.8329 158.333 36.8329 158.5L36.1662 152.833H43.8329ZM36.9996 167V162C37.3329 161.833 38.3329 161.5 39.9996 161.5C41.6662 161.5 42.6662 161.833 42.9995 162V167.167L46.6662 208.833C45.8329 209.167 43.4996 209.667 40.1662 209.667C36.8329 209.667 34.4996 209.167 33.6662 208.833L36.9996 167ZM46.8329 215.5C46.8329 216.5 46.1662 217.167 45.1662 217.167H34.8329C33.8329 217.167 33.1662 216.5 33.1662 215.5V212.167C35.3329 212.833 37.9996 213 39.9996 213C41.9996 213 44.6662 212.833 46.8329 212.167V215.5Z" fill="url(#paint1_radial)"/>
<path d="M165.334 9.16675C159.667 9.16675 154.167 12.0001 150.834 16.8335C148 21.0001 147.167 26.3335 148.5 31.6668C149.5 35.5001 151.5 44.3335 152.834 60.0001C152.834 66.0001 158.5 70.8335 165.334 70.8335C172.167 70.8335 177.834 66.0001 177.834 60.1668C178.334 45.8335 180.667 36.3335 182 32.0001C183.834 25.8335 182.334 19.1668 178.167 14.6668C174.667 11.1668 170.167 9.16675 165.334 9.16675ZM178.834 31.0001C177.5 35.5001 175.167 45.3335 174.667 60.0001C174.667 64.1668 170.5 67.5001 165.5 67.5001C160.334 67.5001 156.334 64.1668 156.334 60.0001C155 44.6668 153.167 35.6668 151.834 31.0001C150.667 26.6668 151.334 22.3335 153.667 19.0001C156.334 15.1668 160.834 12.8335 165.5 12.8335C169.334 12.8335 173 14.5001 175.834 17.3335C179 20.6668 180.334 26.0001 178.834 31.0001Z" fill="url(#paint2_radial)"/>
<path d="M167 20.5V17.6666C167 16.6666 166.333 16 165.333 16C164.333 16 163.666 16.6666 163.666 17.6666V20.5C162.5 21 160.833 21.8333 159.5 23.8333C156.333 28 155.666 34.8333 157.666 44.3333C157.833 45.1666 158.666 45.8333 159.666 45.6666C160.5 45.5 161.166 44.6666 161 43.6666C158.833 33.3333 160.5 28.1666 162.166 25.8333C163.5 24 165 23.5 165.5 23.5C166 23.6666 167.5 24.1666 168.833 25.8333C170.5 28.1666 172.166 33.1666 170 43.6666C169.833 44.5 170.333 45.5 171.333 45.6666C171.5 45.6666 171.5 45.6666 171.666 45.6666C172.5 45.6666 173.166 45.1666 173.333 44.3333C175.333 35 174.666 28 171.5 23.8333C169.666 21.8333 168.166 20.8333 167 20.5Z" fill="url(#paint3_radial)"/>
<path d="M217.166 16.8334C213.833 12.0001 208.333 9.16675 202.666 9.16675C197.833 9.16675 193.333 11.1667 190 14.6667C185.666 19.1667 184.166 25.6667 186.166 32.0001C187.5 36.3334 189.666 45.8334 190.333 60.0001C190.333 66.0001 196 70.8334 202.833 70.8334C209.833 70.8334 215.333 66.0001 215.333 60.1667C216.666 44.3334 218.666 35.5001 219.666 31.6667C221 26.3334 220.166 21.0001 217.166 16.8334ZM216.333 30.8334C215 35.6667 213.166 44.6668 211.833 60.0001C211.833 64.1668 207.666 67.5001 202.666 67.5001C197.666 67.5001 193.5 64.1668 193.5 60.0001C193 45.3334 190.666 35.5001 189.333 31.0001C187.833 26.0001 189 20.6667 192.5 17.0001C195.333 14.1667 199 12.5001 202.833 12.5001C207.5 12.5001 211.833 14.8334 214.666 18.6667C216.833 22.1667 217.5 26.5001 216.333 30.8334Z" fill="url(#paint4_radial)"/>
<path d="M204.333 20.5V17.6666C204.333 16.6666 203.666 16 202.666 16C201.666 16 200.999 16.6666 200.999 17.6666V20.5C199.833 21 198.166 21.8333 196.833 23.8333C193.666 28 193.166 35 194.999 44.3333C195.166 45.1666 195.999 45.8333 196.999 45.6666C197.833 45.5 198.499 44.6666 198.333 43.6666C196.166 33.3333 197.833 28.1666 199.499 25.8333C200.833 24 202.333 23.5 202.833 23.5C203.333 23.6666 204.833 24.1666 206.166 25.8333C207.833 28.1666 209.499 33.1666 207.333 43.6666C207.166 44.5 207.666 45.5 208.666 45.6666C208.833 45.6666 208.833 45.6666 208.999 45.6666C209.833 45.6666 210.499 45.1666 210.666 44.3333C212.666 35 211.999 28 208.833 23.8333C207.166 21.8333 205.499 20.8333 204.333 20.5Z" fill="url(#paint5_radial)"/>
<path d="M204.168 166.167V159.833C204.168 155.333 189.501 154.667 180.834 154.667C172.168 154.667 157.334 155.5 157.334 159.833V205.5C157.334 210 172.001 210.667 180.668 210.667C189.334 210.667 204.001 210 204.001 205.5V199.167C210.834 198.333 216.168 192.333 216.168 185.167V180.333C216.334 173 211.001 167.167 204.168 166.167ZM200.834 205C199.334 205.833 192.501 207.333 180.834 207.333C169.168 207.333 162.334 206 160.834 205V164C165.668 165.833 174.668 166.167 180.834 166.167C187.001 166.167 196.001 165.833 200.834 164V205ZM200.834 160.333C199.334 161.167 192.501 162.667 180.834 162.667C169.168 162.667 162.334 161.333 160.834 160.333C162.334 159.5 169.168 158 180.834 158C192.501 158 199.334 159.5 200.834 160.333ZM213.001 185.167C213.001 190.5 209.168 195 204.168 195.833V169.667C209.168 170.5 213.001 175 213.001 180.333V185.167Z" fill="url(#paint6_radial)"/>
<path d="M216.167 312.167H200.167V308.5C200.167 299.5 192.833 292.333 184 292.333C175.167 292.333 167.833 299.667 167.833 308.5V312.167H151.833C150.833 312.167 150.167 312.833 150.167 313.833V353.5C150.167 353.667 150.167 354 150.333 354.167C150.5 354.333 150.5 354.5 150.667 354.667L160.667 364.667C160.833 364.833 161 365 161.167 365C161.333 365.167 161.667 365.167 161.833 365.167H184H206.167C206.333 365.167 206.667 365.167 206.833 365C207 365 207.167 364.833 207.333 364.667C207.333 364.667 207.333 364.667 207.5 364.667L217.667 354.667C217.833 354.5 218 354.333 218 354.167C218.167 354 218.167 353.667 218.167 353.5V313.833C217.833 312.833 217.167 312.167 216.167 312.167ZM171.167 308.5C171.167 301.333 177 295.667 184 295.667C191 295.667 196.833 301.5 196.833 308.5V312.167H171.167V308.5ZM214.5 352.833L205.333 361.833H184H183.833H162.5L153.5 352.833V315.5H167.833V321.333C167.833 322.333 168.5 323 169.5 323C170.5 323 171.167 322.333 171.167 321.333V315.5H197V321.333C197 322.333 197.667 323 198.667 323C199.667 323 200.333 322.333 200.333 321.333V315.5H214.667V352.833H214.5Z" fill="url(#paint7_radial)"/>
<path d="M76.6661 315C76.6661 314.167 75.9994 313.5 75.3328 313.333L52.9994 302.167V297C52.9994 293 47.6661 290 40.8328 290C33.9994 290 28.6661 293 28.6661 297V302.167L6.33272 313.5C5.66606 313.667 4.99939 314.167 4.99939 315V359.667C4.99939 359.667 4.99939 359.667 4.99939 359.833C4.99939 359.833 4.99939 359.833 4.99939 360C4.99939 361 5.66606 361.667 6.66606 361.667H15.6661V368.333C15.6661 369.333 16.3328 370 17.3328 370C17.4994 370 17.6661 370 17.6661 370H40.6661H63.6661C63.8328 370 63.9994 370 63.9994 370C64.9994 370 65.6661 369.333 65.6661 368.333V361.5H74.9994C75.9994 361.5 76.6661 360.833 76.6661 359.833C76.6661 359.833 76.6661 359.833 76.6661 359.667C76.6661 359.667 76.6661 359.667 76.6661 359.5V315ZM40.8328 293.333C46.3328 293.333 49.8328 295.5 49.8328 297V302.333L40.8328 309L31.8328 302.333V297C31.8328 295.5 35.3328 293.333 40.8328 293.333ZM64.3328 321.333C63.3328 321.333 62.6661 322 62.6661 323V366.667H40.8328H18.9994V323C18.9994 322 18.3328 321.333 17.3328 321.333C16.3328 321.333 15.6661 322 15.6661 323V358.333H8.33272V316.167L29.9994 305.167L39.6661 312.5C39.6661 312.5 39.8328 312.5 39.8328 312.667C39.8328 312.667 39.9994 312.667 39.9994 312.833C40.1661 313 40.3328 313 40.6661 313C40.8328 313 41.1661 313 41.3328 312.833C41.3328 312.833 41.4994 312.833 41.4994 312.667C41.4994 312.667 41.6661 312.667 41.6661 312.5L51.3328 305.167L72.9994 316.167V358.167H65.6661V323C65.9994 322 65.1661 321.333 64.3328 321.333Z" fill="url(#paint8_radial)"/>
<path d="M40.8332 315.333C39.8332 315.333 39.1666 316 39.1666 317V363.167C39.1666 364.167 39.8332 364.833 40.8332 364.833C41.8332 364.833 42.4999 364.167 42.4999 363.167V317C42.4999 316 41.6666 315.333 40.8332 315.333Z" fill="url(#paint9_radial)"/>
<defs>
<radialGradient id="paint0_radial" cx="0" cy="0" r="1" gradientUnits="userSpaceOnUse" gradientTransform="translate(40.0005 12.1667) rotate(90) scale(55.8333 59.6667)">
<stop stop-color="#EB9038"/>
<stop offset="0.515625" stop-color="#F3C3CF"/>
<stop offset="1" stop-color="#8DC4F3"/>
</radialGradient>
<radialGradient id="paint1_radial" cx="0" cy="0" r="1" gradientUnits="userSpaceOnUse" gradientTransform="translate(39.9996 149.5) rotate(90) scale(71 20.3334)">
<stop stop-color="#EB9038"/>
<stop offset="0.515625" stop-color="#F3C3CF"/>
<stop offset="1" stop-color="#8DC4F3"/>
</radialGradient>
<radialGradient id="paint2_radial" cx="0" cy="0" r="1" gradientUnits="userSpaceOnUse" gradientTransform="translate(165.326 9.16675) rotate(90) scale(61.6667 34.891)">
<stop stop-color="#EB9038"/>
<stop offset="0.515625" stop-color="#F3C3CF"/>
<stop offset="1" stop-color="#8DC4F3"/>
</radialGradient>
<radialGradient id="paint3_radial" cx="0" cy="0" r="1" gradientUnits="userSpaceOnUse" gradientTransform="translate(165.5 16) rotate(90) scale(29.6924 17.9346)">
<stop stop-color="#EB9038"/>
<stop offset="0.515625" stop-color="#F3C3CF"/>
<stop offset="1" stop-color="#8DC4F3"/>
</radialGradient>
<radialGradient id="paint4_radial" cx="0" cy="0" r="1" gradientUnits="userSpaceOnUse" gradientTransform="translate(202.787 9.16675) rotate(90) scale(61.6667 34.9888)">
<stop stop-color="#EB9038"/>
<stop offset="0.515625" stop-color="#F3C3CF"/>
<stop offset="1" stop-color="#8DC4F3"/>
</radialGradient>
<radialGradient id="paint5_radial" cx="0" cy="0" r="1" gradientUnits="userSpaceOnUse" gradientTransform="translate(202.869 16) rotate(90) scale(29.6924 17.8616)">
<stop stop-color="#EB9038"/>
<stop offset="0.515625" stop-color="#F3C3CF"/>
<stop offset="1" stop-color="#8DC4F3"/>
</radialGradient>
<radialGradient id="paint6_radial" cx="0" cy="0" r="1" gradientUnits="userSpaceOnUse" gradientTransform="translate(186.753 154.667) rotate(90) scale(56 58.8371)">
<stop stop-color="#EB9038"/>
<stop offset="0.515625" stop-color="#F3C3CF"/>
<stop offset="1" stop-color="#8DC4F3"/>
</radialGradient>
<radialGradient id="paint7_radial" cx="0" cy="0" r="1" gradientUnits="userSpaceOnUse" gradientTransform="translate(184.167 292.333) rotate(90) scale(72.8333 68)">
<stop stop-color="#EB9038"/>
<stop offset="0.515625" stop-color="#F3C3CF"/>
<stop offset="1" stop-color="#8DC4F3"/>
</radialGradient>
<radialGradient id="paint8_radial" cx="0" cy="0" r="1" gradientUnits="userSpaceOnUse" gradientTransform="translate(40.8328 290) rotate(90) scale(80 71.6667)">
<stop stop-color="#EB9038"/>
<stop offset="0.515625" stop-color="#F3C3CF"/>
<stop offset="1" stop-color="#8DC4F3"/>
</radialGradient>
<radialGradient id="paint9_radial" cx="0" cy="0" r="1" gradientUnits="userSpaceOnUse" gradientTransform="translate(40.8332 315.333) rotate(90) scale(49.5 3.33333)">
<stop stop-color="#EB9038"/>
<stop offset="0.515625" stop-color="#F3C3CF"/>
<stop offset="1" stop-color="#8DC4F3"/>
</radialGradient>
</defs>
</svg>
